<?xml version="1.0" encoding="UTF-8"?>
<svg id="a" data-name="CDU" xmlns="http://www.w3.org/2000/svg" viewBox="0 0 95.76 95.76">
  <g id="b" data-name="outlined">
    <g>
      <path d="M7.698406,32.579102h18.000977v6.628418l1.500488-1.500488,1.499512,1.499512v-8.127441c0-.828125-.671875-1.5-1.5-1.5H7.698406c-.828125,0-1.5.671875-1.5,1.5s.671875,1.5,1.5,1.5Z" style="fill: #80bc00;"/>
      <g>
        <path d="M25.699383,49.121094v14.05957h-6.650391v3h8.150391c.828125,0,1.5-.671875,1.5-1.5v-18.060303l3.564941,3.324951v-3.586914l-5.064453-5.064453-5.064453,5.064453v3.586914l3.563965-3.324219v2.5Z" style="fill: #80bc00;"/>
        <path d="M16.048992,63.180664H7.698406c-.828125,0-1.5.671875-1.5,1.5s.671875,1.5,1.5,1.5h8.350586v-3Z" style="fill: #80bc00;"/>
      </g>
    </g>
    <g>
      <path d="M88.361492,63.180664h-18.000977v-8.069946l-1.500488,1.500366-1.499512-1.499756v9.569336c0,.828125.671875,1.5,1.5,1.5h19.500977c.828125,0,1.5-.671875,1.5-1.5s-.671875-1.5-1.5-1.5Z" style="fill: #dbeab9;"/>
      <g>
        <path d="M70.360516,32.579102h6.350586v-3h-7.850586c-.828125,0-1.5.671875-1.5,1.5v16.618652l-3.564941-3.324951v3.586914l5.064453,5.064453,5.064453-5.064453v-3.586914l-3.563965,3.324219v-15.11792Z" style="fill: #dbeab9;"/>
        <path d="M88.361492,29.579102h-8.650391v3h8.650391c.828125,0,1.5-.671875,1.5-1.5s-.671875-1.5-1.5-1.5Z" style="fill: #dbeab9;"/>
      </g>
    </g>
    <path d="M60.38493,53.65625l-2.115723-1.221558.966309-.258911c.666992-.178711,1.0625-.863281.883789-1.530273s-.865234-1.061523-1.530273-.883789l-3.380859.905762-2.464844-1.423218v-2.727661l2.466309-1.424072,3.379395.905518c.108398.029297.216797.042969.324219.042969.551758,0,1.056641-.368164,1.206055-.926758.178711-.666992-.216797-1.351562-.883789-1.530273l-.965332-.258545,2.114746-1.220947c.597656-.345703.802734-1.110352.458008-1.708008-.345703-.598633-1.110352-.801758-1.708008-.458008l-2.116699,1.222046.259277-.967163c.178711-.666016-.216797-1.351562-.883789-1.530273-.662109-.176758-1.351562.216797-1.530273.883789l-.90625,3.380859-2.464355,1.422852-2.362793-1.364624v-2.845337l2.474609-2.474609c.488281-.488281.488281-1.279297,0-1.767578s-1.279297-.488281-1.767578,0l-.707031.707031v-2.443359c0-.69043-.55957-1.25-1.25-1.25s-1.25.55957-1.25,1.25v2.443359l-.707031-.707031c-.488281-.488281-1.279297-.488281-1.767578,0s-.488281,1.279297,0,1.767578l2.474609,2.474609v2.845337l-2.362793,1.364746-2.465332-1.423462-.905273-3.380371c-.178711-.666992-.867188-1.061523-1.530273-.883789-.666992.177734-1.0625.863281-.883789,1.530273l.258789.967041-2.116211-1.221924c-.600586-.34375-1.360352-.140625-1.708008.458008-.344727.597656-.139648,1.362305.458008,1.708008l2.114746,1.220825-.965332.258667c-.666992.178711-1.0625.864258-.883789,1.530273.149414.558594.654297.926758,1.206055.926758.107422,0,.21582-.013672.324219-.042969l3.379395-.90564,2.466309,1.424072v2.727783l-2.465332,1.423462-3.380371-.906006c-.664062-.176758-1.350586.216797-1.530273.883789-.178711.666016.216797,1.351562.883789,1.530273l.966309.259033-2.115723,1.221436c-.597656.345703-.802734,1.110352-.458008,1.708008.232422.401367.652344.625,1.083984.625.211914,0,.426758-.053711.624023-.166992l2.116211-1.22168-.258789.96582c-.178711.666992.216797,1.352539.883789,1.530273.108398.029297.216797.042969.324219.042969.551758,0,1.056641-.368164,1.206055-.926758l.904785-3.37915,2.465332-1.423218,2.363281,1.36438v2.84436l-2.474609,2.475464c-.488281.488281-.488281,1.279297,0,1.767578.244141.244141.563477.366211.883789.366211s.639648-.12207.883789-.366211l.707031-.707275v2.442627c0,.69043.55957,1.25,1.25,1.25s1.25-.55957,1.25-1.25v-2.442627l.707031.707275c.244141.244141.563477.366211.883789.366211.319336,0,.639648-.12207.883789-.366211.488281-.488281.488281-1.279297,0-1.767578l-2.474609-2.475464v-2.84436l2.363281-1.36438,2.464355,1.422729.905762,3.379639c.149414.558594.654297.926758,1.206055.926758.107422,0,.21582-.013672.324219-.042969.666992-.178711,1.0625-.864258.883789-1.530273l-.258789-.966064,2.116211,1.221924c.197266.113281.412109.166992.624023.166992.431641,0,.851562-.223633,1.083984-.625.344727-.597656.139648-1.362305-.458008-1.708008ZM45.516766,46.515625l2.363281-1.365234,2.363281,1.365234v2.729492l-2.363281,1.364258-2.363281-1.364258v-2.729492Z" style="fill: #80bc00;"/>
    <g>
      <path d="M76.711102,76.019531H19.048992v-43.44043h-3v44.94043c0,.828125.671875,1.5,1.5,1.5h60.662109c.828125,0,1.5-.671875,1.5-1.5v-11.338867h-3v9.838867Z" style="fill: #53575a;"/>
      <path d="M78.211102,16.740234H17.548992c-.828125,0-1.5.671875-1.5,1.5v11.338867h3v-9.838867h57.662109v43.44043h3V18.240234c0-.828125-.671875-1.5-1.5-1.5Z" style="fill: #53575a;"/>
    </g>
  </g>
</svg>
