<?xml version="1.0" encoding="UTF-8"?>
<svg id="a" data-name="Layer 1" xmlns="http://www.w3.org/2000/svg" viewBox="0 0 289.133858 141.732283">
  <polygon points="115.397994 70.448417 113.662032 72.318229 113.662032 67.903739 112.355026 67.903739 112.355026 72.297355 110.637985 70.448417 110.637985 72.42913 113.021041 74.992362 115.397994 72.42913 115.397994 70.448417" style="fill: #fff;"/>
  <polygon points="98.073593 100.677482 97.946395 104.178459 101.442977 104.049491 102.845016 102.6455 100.296005 102.73748 103.418014 99.620231 102.491012 98.690666 99.387008 101.795463 99.477035 99.269218 98.073593 100.677482" style="fill: #fff;"/>
  <polygon points="73.746688 113.484428 69.356307 113.482475 71.204208 111.767448 69.218612 111.767448 66.654891 114.152458 69.218612 116.534477 71.201034 116.534477 69.331222 114.794425 73.746688 114.794425 73.746688 113.484428" style="fill: #fff;"/>
  <polygon points="42.37712 100.606437 40.97203 99.204582 37.475692 99.079032 37.606307 102.574455 39.007186 103.976432 38.912032 101.429435 42.033615 104.551444 42.959152 103.623466 39.858505 100.516471 42.37712 100.606437" style="fill: #fff;"/>
  <polygon points="28.167159 74.87548 28.167159 70.487968 29.885604 72.334892 29.88243 70.350212 27.499618 67.78466 25.1212 70.350212 25.1212 72.334892 26.855148 70.460868 26.855148 74.879875 28.167159 74.87548" style="fill: #fff;"/>
  <polygon points="42.445907 42.103935 42.57463 38.604484 39.077011 38.736015 37.675399 40.138175 40.226241 40.045829 37.10173 43.161064 38.030441 44.088554 41.135909 40.988273 41.044113 43.512138 42.445907 42.103935" style="fill: #fff;"/>
  <polygon points="66.777023 29.296867 71.163497 29.300956 69.317489 31.014335 71.301437 31.014335 73.868026 28.630546 71.301437 26.24871 69.317489 26.24871 71.18962 27.989128 66.774032 27.989128 66.777023 29.296867" style="fill: #fff;"/>
  <polygon points="98.140487 42.177177 99.547042 43.578727 103.048019 43.708427 102.916976 40.208976 101.514022 38.805168 101.608016 41.355827 98.486984 38.23455 97.562911 39.160026 100.665023 42.266776 98.140487 42.177177" style="fill: #fff;"/>
  <polygon points="109.528976 61.947257 112.496017 63.810966 114.129989 60.71453 113.619003 58.798759 112.423019 61.055351 111.283981 56.79113 110.01799 57.131767 111.152999 61.372734 109.017013 60.029472 109.528976 61.947257" style="fill: #fff;"/>
  <polygon points="109.82402 93.145683 107.384017 93.897819 109.590988 90.07653 108.457992 89.422538 106.262008 93.220817 105.69902 90.764091 104.707992 92.481376 105.486984 95.893058 108.832992 94.863273 109.82402 93.145683" style="fill: #fff;"/>
  <polygon points="84.523116 111.152458 80.280929 112.280448 81.622177 110.1455 79.706405 110.66143 77.844833 113.628471 80.937911 115.259452 82.850692 114.754447 80.597335 113.557426 84.862411 112.416435 84.523116 111.152458" style="fill: #fff;"/>
  <polygon points="48.507003 110.950431 47.753829 108.518424 51.577011 110.724418 52.231796 109.585441 48.430526 107.390434 50.889511 106.828422 49.168136 105.835441 45.75621 106.619438 46.785323 109.966484 48.507003 110.950431" style="fill: #fff;"/>
  <polygon points="30.988632 80.835868 28.026229 78.972343 26.38713 82.068778 26.900985 83.982353 28.095138 81.726066 29.235702 85.992179 30.50212 85.651542 29.36766 81.414787 31.503829 82.747428 30.988632 80.835868" style="fill: #fff;"/>
  <polygon points="34.2592 49.564323 34.824325 52.021476 35.81163 50.29998 35.033615 46.888175 31.687606 47.91613 30.695236 49.639884 33.134445 48.88549 30.928146 52.708671 32.063644 53.360588 34.2592 49.564323" style="fill: #fff;"/>
  <polygon points="55.999923 31.632743 60.240096 30.500175 58.898788 32.637626 60.817489 32.121574 62.678085 29.156974 59.582931 27.516715 57.666915 28.037284 59.923202 29.227775 55.659286 30.36663 55.999923 31.632743" style="fill: #fff;"/>
  <polygon points="92.013778 31.827018 92.768234 34.269279 88.942733 32.060966 88.293075 33.195243 92.089034 35.393241 89.629989 35.953361 91.349227 36.947441 94.76329 36.16613 93.733505 32.819572 92.013778 31.827018" style="fill: #fff;"/>
  <polygon points="104.970992 47.327079 107.165023 51.129325 104.754989 50.387626 105.749008 52.105155 109.09703 53.13903 109.874984 49.721183 108.879012 48.005729 108.313033 50.494071 106.10704 46.67089 104.970992 47.327079" style="fill: #fff;"/>
  <polygon points="113.592025 84.082756 114.103988 82.164787 111.947006 83.520622 113.085006 79.258476 111.824996 78.922355 110.684982 83.157157 109.504012 80.927909 108.991012 82.851921 110.631027 85.942008 113.592025 84.082756" style="fill: #fff;"/>
  <polygon points="90.522323 108.294425 91.264816 105.887443 89.54869 106.878471 88.516525 110.225456 91.928329 111.002494 93.646835 110.009452 91.157333 109.446464 94.981796 107.23748 94.326522 106.107475 90.522323 108.294425" style="fill: #fff;"/>
  <polygon points="62.731307 112.953483 58.492294 111.812492 60.721603 110.634452 58.804611 110.120475 55.710616 111.762443 57.570907 114.729484 59.48674 115.237419 58.128829 113.074455 62.392013 114.21746 62.731307 112.953483" style="fill: #fff;"/>
  <polygon points="35.548507 95.45623 33.353622 91.658134 35.765487 92.399833 34.771407 90.676444 31.426437 89.648368 30.645126 93.058097 31.639327 94.777275 32.207931 92.291191 34.412032 96.108329 35.548507 95.45623" style="fill: #fff;"/>
  <polygon points="29.891036 56.843254 26.928085 58.704765 26.41423 60.620597 28.57463 59.262687 27.431808 63.524589 28.697921 63.865165 29.83464 59.626151 31.017013 61.851249 31.52452 59.93328 29.891036 56.843254" style="fill: #fff;"/>
  <polygon points="49.995712 34.486564 49.253829 36.899589 50.973312 35.903251 52.004012 32.556022 48.590499 31.778739 46.876144 32.773368 49.364425 33.33953 45.538192 35.545829 46.196212 36.678153 49.995712 34.486564" style="fill: #fff;"/>
  <polygon points="134.928024 67.836845 131.918014 67.836845 128.027999 71.447257 131.918014 75.05706 134.928024 75.05706 132.095992 72.42913 138.78099 72.42913 138.78099 70.444267 132.126022 70.444267 134.928024 67.836845" style="fill: #fff;"/>
  <polygon points="118.498031 114.604484 116.37004 112.475456 111.067001 112.280448 111.264999 117.581474 113.39299 119.710441 113.251022 115.840446 117.980026 120.577445 119.382003 119.17144 114.67601 114.468437 118.498031 114.604484" style="fill: #fff;"/>
  <polygon points="66.592391 133.039482 66.592391 136.054435 69.222823 133.218437 69.222823 139.913444 71.207198 139.913444 71.207198 133.248466 73.812423 136.054435 73.812423 133.039482 70.199325 129.157463 66.592391 133.039482" style="fill: #fff;"/>
  <polygon points="21.940292 114.516471 25.802108 114.380424 21.076339 119.106437 22.478134 120.510429 27.189315 115.79943 27.04631 119.626457 29.17424 117.499443 29.36766 112.190483 24.069198 112.387443 21.940292 114.516471" style="fill: #fff;"/>
  <polygon points="5.595138 74.944267 8.603622 74.944267 12.489608 71.328056 8.605819 67.717948 5.595138 67.717948 8.427413 70.347831 1.739669 70.347831 1.739669 72.334892 8.398849 72.334892 5.595138 74.944267" style="fill: #fff;"/>
  <polygon points="22.025802 28.175224 24.151718 30.299735 29.455001 30.496269 29.257736 25.197929 27.13005 23.072929 27.273116 26.93206 22.545028 22.205924 21.139022 23.605827 25.848007 28.312919 22.025802 28.175224" style="fill: #fff;"/>
  <polygon points="73.930526 9.733329 73.930526 6.725028 71.298202 9.558036 71.298202 2.866142 69.312423 2.866142 69.312423 9.526786 66.709335 6.725028 66.709335 9.733329 70.323409 13.621574 73.930526 9.733329" style="fill: #fff;"/>
  <polygon points="118.580001 28.254325 114.715011 28.402763 119.449996 23.666435 118.041 22.26873 113.332015 26.975761 113.473007 23.15258 111.345016 25.281425 111.152999 30.585868 116.452011 30.385124 118.580001 28.254325" style="fill: #fff;"/>
  <polygon points="128.897994 52.002677 126.079025 56.496574 130.766036 58.976554 133.671981 58.197257 130.259017 56.390068 136.714034 54.653984 136.203048 52.742362 129.770004 54.463554 131.80101 51.225578 128.897994 52.002677" style="fill: #fff;"/>
  <polygon points="128.037032 100.648429 125.429 99.141715 120.259994 100.328422 121.823043 105.396476 124.428024 106.901481 123.293014 103.205436 129.085983 106.545463 130.073043 104.828422 124.311019 101.50048 128.037032 100.648429" style="fill: #fff;"/>
  <polygon points="89.653182 130.024467 85.150802 127.20446 82.673019 131.894462 83.452011 134.800407 85.262618 131.391471 86.995712 137.844413 88.90953 137.33245 87.183517 130.895439 90.428085 132.932487 89.653182 130.024467" style="fill: #fff;"/>
  <polygon points="36.256698 122.946464 34.751327 125.549491 38.444015 124.415458 35.099227 130.206474 36.818527 131.203422 40.151046 125.436454 41.006515 129.164421 42.509628 126.562431 41.325302 121.389457 36.256698 122.946464" style="fill: #fff;"/>
  <polygon points="11.623947 90.778739 14.443038 86.280448 9.756027 83.800773 6.85295 84.577873 10.266525 86.38903 3.806991 88.121269 4.319686 90.039237 10.751632 88.311271 8.716415 91.557731 11.623947 90.778739" style="fill: #fff;"/>
  <polygon points="12.485519 42.132926 15.088485 43.637138 20.259384 42.450859 18.698898 37.382255 16.095809 35.87786 17.232162 39.571769 11.440841 36.226982 10.446395 37.95037 16.211837 41.278739 12.485519 42.132926" style="fill: #fff;"/>
  <polygon points="50.870712 12.754569 55.366805 15.570915 57.847823 10.88256 57.067489 7.978446 55.260421 11.394279 53.532577 4.932548 51.612716 5.450614 53.336105 11.879081 50.093612 9.850517 50.870712 12.754569" style="fill: #fff;"/>
  <polygon points="104.269027 19.826347 105.774032 17.223319 102.076034 18.363944 105.422042 12.566337 103.699996 11.571952 100.374008 17.338066 99.521041 13.611076 98.01213 16.22039 99.19902 21.391288 104.269027 19.826347" style="fill: #fff;"/>
  <polygon points="128.095992 42.233085 124.332992 41.372489 130.119003 38.025871 129.13298 36.308525 123.363021 39.636466 124.485031 35.98455 121.879012 37.482353 120.321029 42.557365 125.488021 43.737724 128.095992 42.233085" style="fill: #fff;"/>
  <polygon points="133.641036 84.69506 130.736007 83.917655 126.047042 86.401786 128.863998 90.889335 131.772018 91.668327 129.718002 88.394767 136.181014 90.124687 136.693038 88.206718 130.262008 86.483085 133.641036 84.69506" style="fill: #fff;"/>
  <polygon points="104.166 123.007438 99.093002 121.450431 97.912032 126.617485 99.418014 129.226493 100.277999 125.455436 103.624008 131.246452 105.339034 130.252433 102.011032 124.486442 105.66899 125.616447 104.166 123.007438" style="fill: #fff;"/>
  <polygon points="50.76213 129.991447 49.979598 132.899467 53.253524 130.849479 51.522628 137.305412 53.43962 137.821464 55.163192 131.391471 56.954696 134.767448 57.73381 131.86547 55.250594 127.170463 50.76213 129.991447" style="fill: #fff;"/>
  <polygon points="12.426132 100.545463 16.19371 101.410453 10.401229 104.751457 11.392013 106.468437 17.159103 103.140434 16.033126 106.790458 18.641525 105.294425 20.202011 100.221427 15.031112 99.037589 12.426132 100.545463" style="fill: #fff;"/>
  <polygon points="6.879073 58.078056 9.786361 58.863456 14.474532 56.379569 11.653915 51.883476 8.749923 51.112785 10.801437 54.384269 4.344894 52.650077 3.830978 54.572441 10.260421 56.291984 6.879073 58.078056" style="fill: #fff;"/>
  <polygon points="36.357162 19.768058 41.430526 21.330558 42.611007 16.157646 41.106796 13.556571 40.242782 17.321464 36.900314 11.528068 35.178817 12.520439 38.510116 18.286857 34.850692 17.166923 36.357162 19.768058" style="fill: #fff;"/>
  <polygon points="89.761581 12.783866 90.539901 9.879569 87.269393 11.93328 89.002609 5.467216 87.080001 4.95745 85.353439 11.38787 83.564132 8.007743 82.785812 10.913749 85.271835 15.606376 89.761581 12.783866" style="fill: #fff;"/>
  <polygon points="103.832992 65.108329 102.254012 65.317008 103.922042 66.501884 100.423019 66.959464 100.556014 68.001884 104.041 67.542167 102.753036 69.094474 104.330001 68.889823 106.116012 66.733879 103.832992 65.108329" style="fill: #fff;"/>
  <polygon points="124.953048 63.015068 121.582015 60.219657 119.05101 63.794181 119.371993 66.248954 121.217025 63.650016 121.938033 69.117668 123.561996 68.906486 122.848007 63.464042 125.276046 65.473869 124.953048 63.015068" style="fill: #fff;"/>
  <polygon points="98.442001 90.688651 97.181808 89.717277 97.520126 91.733329 94.719589 89.583488 94.079025 90.41497 96.869003 92.554313 94.859542 92.746757 96.118331 93.709648 98.90599 93.448661 98.442001 90.688651" style="fill: #fff;"/>
  <polygon points="113.345992 106.109428 114.858016 104.141471 114.446029 99.787467 110.133041 100.516471 108.623031 102.478446 111.766036 101.951469 108.412032 106.322441 109.706039 107.323478 113.047042 102.965446 113.345992 106.109428" style="fill: #fff;"/>
  <polygon points="76.540939 104.964408 76.334335 103.384452 75.151718 105.054435 74.690109 101.54644 73.651718 101.686454 74.11119 105.173454 72.554794 103.882438 72.762802 105.459464 74.918807 107.239433 76.540939 104.964408" style="fill: #fff;"/>
  <polygon points="75.402511 120.499443 78.003524 122.344474 72.532089 123.067436 72.747238 124.68444 78.19078 123.970451 76.178634 126.405448 78.635604 126.076469 81.429794 122.710441 77.859542 120.17443 75.402511 120.499443" style="fill: #fff;"/>
  <polygon points="51.236434 95.207939 49.095809 97.999259 48.906906 95.991142 47.93962 97.249259 48.202804 100.033439 50.965011 99.568046 51.930099 98.308097 49.918136 98.652763 52.065841 95.851066 51.236434 95.207939" style="fill: #fff;"/>
  <polygon points="35.541122 114.474418 37.5092 115.983451 41.868331 115.575431 41.135116 111.26342 39.170028 109.752433 39.701827 112.895439 35.324813 109.540458 34.330428 110.835441 38.685409 114.177482 35.541122 114.474418" style="fill: #fff;"/>
  <polygon points="38.265548 77.464042 36.600509 76.283378 40.102889 75.815666 39.964034 74.785575 36.479415 75.243156 37.766036 73.688651 36.192001 73.891532 34.409835 76.04943 36.692306 77.67498 38.265548 77.464042" style="fill: #fff;"/>
  <polygon points="15.572128 79.768241 18.941329 82.563651 21.474532 78.991142 21.151534 76.534355 19.302657 79.133293 18.581954 73.665763 16.962814 73.878898 17.677413 79.319267 15.246505 77.307365 15.572128 79.768241" style="fill: #fff;"/>
  <polygon points="42.081405 52.096672 43.344406 53.057548 42.999618 51.04998 45.801437 53.195426 46.43962 52.366142 43.650558 50.226737 45.662521 50.040946 44.401534 49.071464 41.618514 49.334648 42.081405 52.096672" style="fill: #fff;"/>
  <polygon points="27.17369 36.671867 25.667587 38.642021 26.0717 43.002189 30.389999 42.264823 31.89952 40.298759 28.754318 40.835868 32.11174 36.452323 30.815292 35.464225 27.475753 39.820243 27.17369 36.671867" style="fill: #fff;"/>
  <polygon points="63.978622 37.820732 64.188583 39.396171 65.36882 37.728935 65.830734 41.228446 66.868026 41.09246 66.412521 37.607841 67.964706 38.89495 67.757919 37.323661 65.60411 35.543632 63.978622 37.820732" style="fill: #fff;"/>
  <polygon points="65.121505 22.283378 62.517013 20.432365 67.986678 19.715751 67.77452 18.096672 62.333419 18.809074 64.345321 16.372978 61.885421 16.703056 59.091903 20.06652 62.662216 22.60717 65.121505 22.283378" style="fill: #fff;"/>
  <polygon points="89.28453 47.569267 91.428085 44.782463 91.612716 46.792167 92.581222 45.530265 92.31993 42.747428 89.556014 43.211173 88.589706 44.475089 90.601425 44.13256 88.456893 46.930168 89.28453 47.569267" style="fill: #fff;"/>
  <polygon points="104.981002 28.304618 103.006027 26.800224 98.652999 27.201347 99.387008 31.51995 101.353011 33.030265 100.817001 29.886161 105.197006 33.243339 106.18901 31.948173 101.832992 28.605461 104.981002 28.304618" style="fill: #fff;"/>
  <polygon points="98.645004 60.275871 101.895004 58.926261 101.05101 60.766776 102.517013 60.154777 103.688033 57.614433 101.063033 56.634452 99.594039 57.242362 101.508041 57.948661 98.246993 59.306571 98.645004 60.275871" style="fill: #fff;"/>
  <polygon points="120.91899 49.144767 116.947006 47.320732 115.422042 51.42797 116.37004 53.715751 117.478011 50.726066 119.589034 55.819755 121.100021 55.194755 118.998031 50.12664 121.866989 51.432365 120.91899 49.144767" style="fill: #fff;"/>
  <polygon points="101.441024 84.947441 99.547042 85.649589 101.014022 86.255546 103.642013 85.27996 102.473983 82.735038 101.007003 82.131584 101.856002 83.982353 98.593002 82.628654 98.194015 83.604118 101.441024 84.947441" style="fill: #fff;"/>
  <polygon points="121.809982 91.488944 120.291 87.377372 116.313033 89.19915 115.364974 91.491142 118.263046 90.166496 116.154037 95.262138 117.660995 95.884757 119.763046 90.816154 120.861984 93.772331 121.809982 91.488944" style="fill: #fff;"/>
  <polygon points="84.404891 100.723442 83.699813 102.639457 82.346786 99.375968 81.376815 99.774406 82.721115 103.02349 80.887618 102.186454 81.494491 103.652458 84.038192 104.818473 85.016036 102.19445 84.404891 100.723442" style="fill: #fff;"/>
  <polygon points="87.937911 117.493461 90.926437 118.604423 85.830001 120.715446 86.453536 122.229423 91.527023 120.128471 90.214218 122.996452 92.5009 122.052482 94.330734 118.070426 90.226425 116.553459 87.937911 117.493461" style="fill: #fff;"/>
  <polygon points="58.916427 103.60247 59.522079 102.13549 57.666122 102.99047 59.016708 99.720329 58.05162 99.325675 56.704696 102.570426 55.999923 100.679435 55.394882 102.148429 56.368514 104.768424 58.916427 103.60247" style="fill: #fff;"/>
  <polygon points="50.167831 122.942436 54.273116 121.419425 52.445236 117.439445 50.158615 116.49047 51.486007 119.392448 46.388351 117.282463 45.762618 118.793449 50.835311 120.890434 47.87712 121.991447 50.167831 122.942436" style="fill: #fff;"/>
  <polygon points="41.874618 82.509452 38.629012 83.848564 39.46788 82.024894 38.00212 82.626457 36.835311 85.166984 39.458419 86.144767 40.928329 85.53466 39.013534 84.826347 42.273605 83.474784 41.874618 82.509452" style="fill: #fff;"/>
  <polygon points="23.580428 95.458427 25.103622 91.357353 24.153732 89.06536 23.046493 92.057365 20.932357 86.959648 19.420516 87.590568 21.521407 92.659172 18.65306 91.342765 19.601425 93.634757 23.580428 95.458427" style="fill: #fff;"/>
  <polygon points="39.077011 57.835868 40.97203 57.131767 39.50621 56.523857 36.885604 57.497245 38.046981 60.046073 39.517928 60.653984 38.662521 58.798759 41.925887 60.144279 42.32579 59.179191 39.077011 57.835868" style="fill: #fff;"/>
  <polygon points="18.713546 51.300468 20.232284 55.401725 24.213302 53.577873 25.160018 51.283866 22.259628 52.619071 24.3712 47.517265 22.860702 46.896476 20.761093 51.967277 19.655929 49.010978 18.713546 51.300468" style="fill: #fff;"/>
  <polygon points="56.115829 42.058097 56.823898 40.146171 58.177902 43.407463 59.142928 43.004386 57.797714 39.757743 59.633224 40.599784 59.025985 39.135124 56.484725 37.96508 55.503829 40.587028 56.115829 42.058097" style="fill: #fff;"/>
  <polygon points="52.586105 25.283378 49.594406 24.176261 54.690109 22.061943 54.065109 20.553642 48.995712 22.653251 50.305831 19.778556 48.014999 20.733329 46.189803 24.708976 50.295333 26.234062 52.586105 25.283378" style="fill: #fff;"/>
  <polygon points="82.472335 43.457939 83.821212 40.210868 84.523116 42.103935 85.124618 40.639335 84.156112 38.013175 81.606613 39.181083 80.999618 40.645683 82.855819 39.793388 81.507186 43.054374 82.472335 43.457939" style="fill: #fff;"/>
  <polygon points="90.353134 19.841239 86.2509 21.361991 88.07579 25.341972 90.362411 26.292655 89.035812 23.390861 94.13121 25.49871 94.754989 23.99047 89.685714 21.892753 92.645919 20.783378 90.353134 19.841239" style="fill: #fff;"/>
  <polygon points="94.161483 52.478996 94.802108 53.310417 97.591232 51.16497 97.253524 53.149528 98.517013 52.186454 98.979049 49.433036 96.192306 49.161064 94.933517 50.134757 96.968429 50.327079 94.161483 52.478996" style="fill: #fff;"/>
  <polygon points="110.52098 39.21038 113.879989 43.582939 115.179 42.590568 111.83403 38.238761 114.944015 38.758964 113.436996 36.792961 109.121017 36.059745 108.70903 40.415763 110.223983 42.383781 110.52098 39.21038" style="fill: #fff;"/>
  <polygon points="103.814987 77.788017 106.098007 76.172782 104.313033 74.010673 102.741012 73.807731 104.041 75.376823 100.538009 74.913078 100.402023 75.959648 103.887985 76.415275 102.243026 77.587333 103.814987 77.788017" style="fill: #fff;"/>
  <polygon points="122.387008 82.78289 123.100997 77.338554 124.929977 79.910575 125.254012 77.457756 122.723983 73.885124 119.350021 76.676444 119.03099 79.133293 121.486984 77.104667 120.76799 82.568046 122.387008 82.78289" style="fill: #fff;"/>
  <polygon points="89.46202 99.643241 92.219589 100.109428 92.486007 97.326347 91.514511 96.064323 91.327499 98.095146 89.174728 95.295585 88.3441 95.930656 90.487716 98.721855 88.494491 98.383476 89.46202 99.643241" style="fill: #fff;"/>
  <polygon points="104.860031 114.566459 105.592025 110.246452 101.231002 109.843437 99.269027 111.353446 102.441024 111.650443 98.065292 115.009452 99.064987 116.308464 103.416976 112.966484 102.892013 116.072441 104.860031 114.566459" style="fill: #fff;"/>
  <polygon points="65.69493 101.536491 65.235214 105.016471 64.066329 103.376457 63.858322 104.945426 65.479598 107.225456 67.639022 105.442436 67.845809 103.867423 66.272628 105.173454 66.733322 101.669425 65.69493 101.536491" style="fill: #fff;"/>
  <polygon points="64.97203 120.47747 62.516219 120.157463 64.548934 122.610465 59.080428 121.899467 58.868514 123.512443 64.3087 124.231498 61.737899 126.065483 64.194686 126.383415 67.767501 123.855461 64.97203 120.47747" style="fill: #fff;"/>
  <polygon points="46.357101 90.304313 45.718612 89.476921 42.931808 91.618339 43.267196 89.625419 42.0092 90.588371 41.542404 93.350517 44.329513 93.613761 45.58702 92.644462 43.558517 92.462577 46.357101 90.304313" style="fill: #fff;"/>
  <polygon points="29.999618 103.577445 26.642013 99.194084 25.346786 100.192436 28.688644 104.54644 25.57463 104.018424 27.08702 105.986442 31.398116 106.723442 31.809738 102.363456 30.300216 100.3955 29.999618 103.577445" style="fill: #fff;"/>
  <polygon points="36.705001 64.993339 34.426437 66.610526 36.208602 68.770683 37.785995 68.975273 36.479415 67.404289 39.978622 67.859855 40.117843 66.827568 36.631698 66.370231 38.278915 65.195976 36.705001 64.993339" style="fill: #fff;"/>
  <polygon points="18.136825 60.000175 17.419296 65.440666 15.586105 62.866325 15.268234 65.327873 17.79631 68.896171 21.172531 66.10717 21.492111 63.647819 19.037216 65.684928 19.754012 60.215263 18.136825 60.000175" style="fill: #fff;"/>
  <polygon points="51.062911 43.135978 48.301132 42.67205 48.035812 45.459159 49.004989 46.716728 49.192306 44.681816 51.345138 47.483573 52.172531 46.844169 50.033126 44.061454 52.025985 44.395683 51.062911 43.135978" style="fill: #fff;"/>
  <polygon points="35.66545 28.216728 34.925948 32.52703 39.285995 32.94036 41.254318 31.434074 38.077499 31.133415 42.453231 27.773857 41.457931 26.480644 37.106124 29.814872 37.626144 26.702079 35.66545 28.216728" style="fill: #fff;"/>
  <polygon points="74.82579 41.249259 75.28453 37.766532 76.454208 39.408683 76.660018 37.833427 75.043136 35.556022 72.882736 37.33831 72.675216 38.911552 74.247238 37.607841 73.787521 41.111564 74.82579 41.249259" style="fill: #fff;"/>
  <polygon points="75.551925 22.298026 78.005477 22.623954 75.972823 20.16912 81.442489 20.88372 81.650314 19.266532 76.212997 18.547782 78.7816 16.717765 76.324813 16.395927 72.756515 18.928153 75.551925 22.298026" style="fill: #fff;"/>
  <polygon points="77.789718 29.829521 82.028182 30.970146 79.797225 32.148673 81.714034 32.662528 84.810226 31.022331 82.947921 28.060234 81.032821 27.546073 82.392013 29.706474 78.128097 28.563651 77.789718 29.829521" style="fill: #fff;"/>
  <path d="M55.290328,79.603935h.00708c.028198.686523.428284,1.497803,1.117737,2.338013l.933105-7.540588-2.057922-.990295v6.192871Z" style="fill: #fff;"/>
  <path d="M85.793624,79.604362v-6.115295l-13.605103,6.56366s-.730286.34552-1.549438.34552c-.817993,0-1.545288-.340271-1.545288-.340271l-8.663879-4.170044,1.227966,9.889709c2.503601,1.190186,5.561218,2.034485,8.883545,2.034485,8.344055,0,15.120667-5.264648,15.243286-8.207764h.008911Z" style="fill: #fff;"/>
  <path d="M58.800277,90.191398c1.467224,0,1.779663-1.511169,1.779663-1.511169l-1.779663-13.5672-1.779663,13.5672s.312805,1.511169,1.779663,1.511169Z" style="fill: #fff;"/>
  <path d="M94.499191,66.549858l-22.333496-10.719788c-.840515-.40332-2.215698-.40332-3.056213,0l-22.333496,10.715271c-.840088.404419-.840088,1.064209,0,1.467529l9.764404,4.68457c.433899.208435.827026.383301,1.108398.497314.264343.106812.435852.215881.435852.18811,0-.258789.119141-.42511.205505-.49469.037781-.031616.211853-.132812.461182-.269714l1.441406-.753906,7.839355-4.100403c-.070312-.148193-.117371-.30249-.117371-.466492,0-.94574,1.218262-1.711609,2.721375-1.711609,1.502319,0,2.721436.766602,2.721436,1.711609,0,.945801-1.219116,1.712402-2.721436,1.712402-.461853,0-.889771-.079834-1.269104-.207581l-9.471802,4.953857s-.13678.102051-.13678.258545c0,.162476.083801.240662.083801.240662.350891.197083.708191.36908,1.183899.600403l8.084106,3.877441c.840515.406555,2.214722.406555,3.055481,0l22.332825-10.714966c.84082-.405579.84082-1.065369.000671-1.468567Z" style="fill: #fff;"/>
  <path d="M184.310043,38.095817h-14.134033c-7.203003,0-9.684021,3.675842-9.684021,10.536194v12.684937c0,6.853271,2.481018,10.539062,9.684021,10.539062h14.134033c7.203979,0,9.684937-3.685791,9.684937-10.539062v-12.684937c0-6.860352-2.56897-10.536194-9.684937-10.536194ZM186.029037,61.490104c0,2.22583-1.455017,2.65509-3.426025,2.65509h-10.627014c-1.971985,0-3.425964-.42926-3.425964-2.65509v-13.031189c0-2.22583,1.453979-2.65387,3.425964-2.65387h10.627014c1.971008,0,3.426025.42804,3.426025,2.65387v13.031189Z" style="fill: #fff;"/>
  <path d="M255.621017,71.915336h4.544983c.940002,0,1.713013-.854553,1.713013-1.799194v-11.224792h15.420044c6.863953,0,9.686951-3.596985,9.686951-10.198425,0-6.860596-2.484009-10.537903-9.686951-10.537903h-21.592041c-.937012,0-1.796997.682922-1.796997,1.630432v30.330688c0,.944641.768005,1.799194,1.710999,1.799194ZM261.879012,45.865837h13.625c1.968994,0,3.509033.427979,3.509033,2.653748,0,2.320251-1.625061,2.659546-3.682007,2.659546h-13.452026v-5.313293Z" style="fill: #fff;"/>
  <path d="M240.699996,61.760612h-7.97998c-.122986,1.973816-1.52002,2.384583-3.401978,2.384583h-10.627014c-1.971985,0-3.426025-.42926-3.426025-2.65509v-13.031189c0-2.22583,1.454041-2.65387,3.426025-2.65387h10.627014c1.883972,0,3.281006.409485,3.401978,2.386169h7.97998c-.112976-6.571411-2.71698-10.095398-9.674011-10.095398h-14.134949c-7.203003,0-9.683044,3.675842-9.683044,10.536194v12.684937c0,6.853271,2.480042,10.539062,9.683044,10.539062h14.134949c7.04303,0,9.564026-3.534058,9.674011-10.095398Z" style="fill: #fff;"/>
  <path d="M168.538497,85.934501l-3.108398.364258-.196289.196289-6.57959,18.367188.195801.196289h3.219727l.196289-.196289,1.427734-4.28418h6.720703l1.427734,4.28418.196289.196289h3.219727l.195312-.196289-6.719727-18.731445-.195312-.196289ZM164.67424,97.666923l1.875977-5.62793.503906-1.848633.503906,1.848633,1.875977,5.62793h-4.759766Z" style="fill: #fff;"/>
  <path d="M190.238693,99.626884l-.280273.083984s-.78418,2.603516-4.396484,2.603516c-2.519531,0-4.367188-1.288086-4.367188-4.143555v-5.012695c0-2.771484,1.847656-4.199219,4.367188-4.199219,3.024414,0,4.088867,2.547852,4.088867,2.547852l.279297.083984,2.744141-1.148438.112305-.251953s-1.400391-4.311523-7.224609-4.311523c-4.81543,0-7.895508,2.463867-7.895508,7.083984v5.431641c0,4.591797,3.080078,7,7.895508,7,6.384766,0,7.532227-4.507812,7.532227-4.507812l-.111328-.251953-2.744141-1.007812Z" style="fill: #fff;"/>
  <path d="M204.57463,85.934501l-3.108398.364258-.196289.196289-6.580078,18.367188.196289.196289h3.219727l.196289-.196289,1.427734-4.28418h6.720703l1.427734,4.28418.196289.196289h3.219727l.195312-.196289-6.719727-18.731445-.195312-.196289ZM200.710372,97.666923l1.875977-5.62793.503906-1.848633.503906,1.848633,1.875977,5.62793h-4.759766Z" style="fill: #fff;"/>
  <path d="M221.374435,86.158134h-6.832031l-.196289.196289v18.507812l.196289.196289h6.832031c4.816406,0,7.868164-2.324219,7.868164-6.944336v-4.956055c0-4.563477-3.051758-7-7.868164-7ZM225.714279,97.890556c0,2.828125-1.819336,4.087891-4.339844,4.087891h-3.555664v-12.740234h3.555664c2.520508,0,4.339844,1.344727,4.339844,4.144531v4.507812Z" style="fill: #fff;"/>
  <polygon points="237.222091 101.978446 237.222091 96.686454 242.962325 96.686454 243.214279 96.546806 243.913497 93.830985 243.773849 93.606376 237.222091 93.606376 237.222091 89.238212 244.669357 89.238212 244.865646 89.0429 244.865646 86.354423 244.669357 86.158134 233.945724 86.158134 233.749435 86.354423 233.749435 104.862235 233.945724 105.058525 244.306075 105.058525 244.529708 104.890556 244.922286 102.202079 244.753341 101.978446 237.222091 101.978446" style="fill: #fff;"/>
  <polygon points="264.466232 86.298759 264.242599 86.466728 258.502365 96.546806 252.565841 86.10247 252.313888 85.962821 249.430099 86.298759 249.23381 86.495048 249.23381 104.862235 249.430099 105.058525 252.510177 105.058525 252.706466 104.862235 252.706466 92.430595 253.601974 94.334892 256.934005 99.990165 257.185958 100.186454 259.817794 100.186454 260.069747 99.990165 263.374435 94.362235 264.353927 92.31829 264.353927 104.862235 264.550216 105.058525 267.57463 105.058525 267.769943 104.862235 267.769943 86.10247 267.51799 85.962821 264.466232 86.298759" style="fill: #fff;"/>
  <polygon points="282.050216 86.298759 281.798263 86.466728 278.83049 92.738212 278.269943 94.278251 277.710372 92.738212 274.601974 86.07415 274.350021 85.934501 270.878341 86.327079 270.682052 86.522392 276.534591 97.134696 276.534591 104.862235 276.729904 105.058525 279.809982 105.058525 280.006271 104.862235 280.006271 97.106376 285.886154 86.13079 285.689865 85.934501 282.050216 86.298759" style="fill: #fff;"/>
</svg>
