<svg xmlns="http://www.w3.org/2000/svg" viewBox="0 0 200 200" width="200" height="200" role="img" aria-labelledby="title desc">
  <title id="title">MRC course mark</title>
  <desc id="desc">A stylized multipath network mark with the letters MRC.</desc>
  <defs>
    <linearGradient id="fabric" x1="26" y1="28" x2="174" y2="172" gradientUnits="userSpaceOnUse">
      <stop offset="0" stop-color="#343895"/>
      <stop offset="0.54" stop-color="#245FA9"/>
      <stop offset="1" stop-color="#8DC63F"/>
    </linearGradient>
    <linearGradient id="pathHot" x1="36" y1="74" x2="164" y2="126" gradientUnits="userSpaceOnUse">
      <stop offset="0" stop-color="#D7F4AE"/>
      <stop offset="1" stop-color="#8DC63F"/>
    </linearGradient>
    <linearGradient id="letterField" x1="42" y1="68" x2="158" y2="132" gradientUnits="userSpaceOnUse">
      <stop offset="0" stop-color="#111B4D"/>
      <stop offset="0.62" stop-color="#132A63"/>
      <stop offset="1" stop-color="#17345F"/>
    </linearGradient>
    <filter id="softShadow" x="-20%" y="-20%" width="140%" height="140%">
      <feDropShadow dx="0" dy="8" stdDeviation="7" flood-color="#1E245A" flood-opacity="0.25"/>
    </filter>
  </defs>

  <path d="M100 12 174 55v90l-74 43-74-43V55z" fill="url(#fabric)" filter="url(#softShadow)"/>
  <path d="M100 24 163 61v78l-63 37-63-37V61z" fill="none" stroke="#FFFFFF" stroke-opacity="0.22" stroke-width="3"/>

  <g fill="none" stroke-linecap="round" stroke-linejoin="round">
    <path d="M38 72c31-27 93-27 124 0" stroke="#FFFFFF" stroke-opacity="0.28" stroke-width="7"/>
    <path d="M38 100h124" stroke="url(#pathHot)" stroke-width="8"/>
    <path d="M38 128c31 27 93 27 124 0" stroke="#FFFFFF" stroke-opacity="0.28" stroke-width="7"/>
  </g>

  <g stroke="#FFFFFF" stroke-width="3">
    <circle cx="38" cy="72" r="5" fill="#FFFFFF" fill-opacity="0.72"/>
    <circle cx="38" cy="100" r="5" fill="#D7F4AE"/>
    <circle cx="38" cy="128" r="5" fill="#FFFFFF" fill-opacity="0.72"/>
    <circle cx="162" cy="72" r="5" fill="#FFFFFF" fill-opacity="0.72"/>
    <circle cx="162" cy="100" r="5" fill="#D7F4AE"/>
    <circle cx="162" cy="128" r="5" fill="#FFFFFF" fill-opacity="0.72"/>
  </g>

  <path d="M38 100c0-28 25-48 62-48s62 20 62 48-25 48-62 48-62-20-62-48z" fill="url(#letterField)" opacity="0.96"/>
  <path d="M49 100c0-22 21-37 51-37s51 15 51 37-21 37-51 37-51-15-51-37z" fill="none" stroke="#FFFFFF" stroke-opacity="0.14" stroke-width="3"/>
  <text x="100" y="117" text-anchor="middle" font-family="Open Sans, Arial, sans-serif" font-weight="800" font-size="54" fill="#FFFFFF" stroke="#0B1238" stroke-opacity="0.36" stroke-width="4" paint-order="stroke" letter-spacing="2.5">MRC</text>
</svg>
