<svg width="128" height="128" viewBox="0 0 128 128" fill="none" xmlns="http://www.w3.org/2000/svg" role="img" aria-labelledby="title desc">
  <title id="title">Diablo 400 course icon</title>
  <desc id="desc">Stylized sidecar power rack with plus and minus 400 volt DC rails.</desc>
  <defs>
    <linearGradient id="bg" x1="16" y1="14" x2="112" y2="118" gradientUnits="userSpaceOnUse">
      <stop offset="0" stop-color="#19194D"/>
      <stop offset="1" stop-color="#343895"/>
    </linearGradient>
    <linearGradient id="rail" x1="34" y1="29" x2="94" y2="100" gradientUnits="userSpaceOnUse">
      <stop offset="0" stop-color="#A8D86A"/>
      <stop offset="1" stop-color="#8DC63F"/>
    </linearGradient>
    <filter id="glow" x="-20%" y="-20%" width="140%" height="140%" color-interpolation-filters="sRGB">
      <feDropShadow dx="0" dy="0" stdDeviation="5" flood-color="#8DC63F" flood-opacity="0.45"/>
    </filter>
  </defs>
  <rect x="10" y="10" width="108" height="108" rx="26" fill="url(#bg)"/>
  <rect x="17" y="17" width="94" height="94" rx="21" stroke="#8DC63F" stroke-width="4" opacity="0.85"/>
  <path d="M39 33h35c10.5 0 19 8.5 19 19v24c0 10.5-8.5 19-19 19H39V33Z" fill="#FFFFFF" opacity="0.08"/>
  <path d="M39 33h35c10.5 0 19 8.5 19 19v24c0 10.5-8.5 19-19 19H39V33Z" stroke="#FFFFFF" stroke-width="4" stroke-linejoin="round"/>
  <path d="M52 33v62M65 33v62M78 36v56" stroke="#FFFFFF" stroke-width="3" stroke-linecap="round" opacity="0.88"/>
  <path d="M31 49h64M31 64h64M31 79h64" stroke="url(#rail)" stroke-width="6" stroke-linecap="round" filter="url(#glow)"/>
  <path d="M28 49h10M33 44v10" stroke="#FFFFFF" stroke-width="4" stroke-linecap="round"/>
  <path d="M28 79h10" stroke="#FFFFFF" stroke-width="4" stroke-linecap="round"/>
  <circle cx="98" cy="49" r="5" fill="#8DC63F"/>
  <circle cx="98" cy="64" r="5" fill="#8DC63F"/>
  <circle cx="98" cy="79" r="5" fill="#8DC63F"/>
  <text x="64" y="113" fill="#FFFFFF" font-family="Open Sans, Arial, sans-serif" font-size="14" font-weight="800" text-anchor="middle" letter-spacing="1">400V</text>
</svg>
