<svg xmlns="http://www.w3.org/2000/svg" viewBox="0 0 128 128" role="img" aria-label="Quantum data center course mark">
  <defs>
    <linearGradient id="g" x1="20" y1="18" x2="108" y2="110" gradientUnits="userSpaceOnUse">
      <stop offset="0" stop-color="#8DC63F"/>
      <stop offset="1" stop-color="#343895"/>
    </linearGradient>
  </defs>
  <rect x="26" y="20" width="48" height="88" rx="6" fill="#ffffff" stroke="#5F6062" stroke-width="4"/>
  <rect x="36" y="34" width="28" height="8" rx="2" fill="#8DC63F"/>
  <rect x="36" y="50" width="28" height="8" rx="2" fill="#9ca3af"/>
  <rect x="36" y="66" width="28" height="8" rx="2" fill="#9ca3af"/>
  <rect x="36" y="82" width="28" height="8" rx="2" fill="#9ca3af"/>
  <circle cx="86" cy="58" r="18" fill="none" stroke="url(#g)" stroke-width="5"/>
  <ellipse cx="86" cy="58" rx="31" ry="10" fill="none" stroke="#8DC63F" stroke-width="4"/>
  <ellipse cx="86" cy="58" rx="10" ry="31" fill="none" stroke="#343895" stroke-width="4"/>
  <circle cx="86" cy="58" r="5" fill="#8DC63F"/>
  <path d="M74 88h22c6 0 10 4 10 10s-4 10-10 10H50" fill="none" stroke="#5F6062" stroke-width="4" stroke-linecap="round"/>
  <circle cx="50" cy="108" r="5" fill="#343895"/>
</svg>
