<?xml version="1.0" encoding="UTF-8" standalone="no"?>
<!-- Generator: Adobe Illustrator 19.2.1, SVG Export Plug-In . SVG Version: 6.00 Build 0)  -->

<svg
   version="1.1"
   x="0px"
   y="0px"
   viewBox="0 0 676.19048 128.25"
   enable-background="new 0 0 284 54"
   width="500"
   height="95"
   xml:space="preserve"
   id="svg31"
   sodipodi:docname="Amphenol.svgz"
   inkscape:version="1.1 (c68e22c387, 2021-05-23)"
   xmlns:inkscape="http://www.inkscape.org/namespaces/inkscape"
   xmlns:sodipodi="http://sodipodi.sourceforge.net/DTD/sodipodi-0.dtd"
   xmlns="http://www.w3.org/2000/svg"
   xmlns:svg="http://www.w3.org/2000/svg"
   xmlns:rdf="http://www.w3.org/1999/02/22-rdf-syntax-ns#"
   xmlns:cc="http://creativecommons.org/ns#"
   xmlns:dc="http://purl.org/dc/elements/1.1/"><title
   id="title3270">Amphenol logo, 2021</title><defs
   id="defs35" /><sodipodi:namedview
   id="namedview33"
   pagecolor="#ffffff"
   bordercolor="#666666"
   borderopacity="1.0"
   inkscape:pageshadow="2"
   inkscape:pageopacity="0.0"
   inkscape:pagecheckerboard="0"
   showgrid="false"
   fit-margin-top="0"
   fit-margin-left="0"
   fit-margin-right="0"
   fit-margin-bottom="0"
   inkscape:zoom="1"
   inkscape:cx="465"
   inkscape:cy="-42"
   inkscape:current-layer="svg31" />

<path
   id="path5"
   style="stroke-width:1.76056;fill:#005cb9;fill-opacity:1"
   d="M 26.408203 -0.021484375 L 0 73.921875 L 16.373047 73.921875 L 21.478516 58.605469 L 48.767578 58.605469 L 53.521484 73.921875 L 70.421875 73.921875 L 44.189453 -0.021484375 L 26.408203 -0.021484375 z M 235.91602 -0.021484375 L 235.91602 73.921875 L 250.17578 73.921875 L 250.17578 42.583984 C 250.17578 34.309337 255.10533 29.908203 261.44336 29.908203 C 270.59829 29.908203 270.77539 36.597189 270.77539 40.646484 L 270.77539 73.921875 L 285.21094 73.921875 L 285.21094 35.892578 C 285.21094 23.920747 276.9367 17.583984 266.19727 17.583984 C 258.27473 17.583984 252.11212 21.633472 250.35156 26.210938 L 250.17578 26.210938 L 250.17578 -0.021484375 L 235.91602 -0.021484375 z M 485.91602 -0.021484375 L 485.91602 73.921875 L 500 73.921875 L 500 -0.021484375 L 485.91602 -0.021484375 z M 35.210938 16.703125 L 35.386719 16.703125 L 44.365234 45.927734 L 25.527344 45.927734 L 35.210938 16.703125 z M 108.97852 17.583984 C 99.295423 17.583984 95.247161 23.568717 93.310547 27.089844 L 93.134766 27.089844 L 93.134766 18.992188 L 79.224609 18.992188 L 79.224609 73.921875 L 93.662109 73.921875 L 93.662109 40.470703 C 93.662109 34.484788 95.774431 29.732422 102.64062 29.732422 C 111.44345 29.732422 111.44336 36.2448 111.44336 40.822266 L 111.44336 73.921875 L 126.05664 73.921875 L 126.05664 41.175781 C 126.05664 34.661697 128.6977 29.908203 135.91602 29.908203 C 140.14136 29.908203 143.83789 32.547893 143.83789 40.646484 L 143.83789 73.921875 L 158.45117 73.921875 L 158.45117 35.892578 C 158.45117 23.920747 149.99947 17.583984 139.08398 17.583984 C 130.28117 17.583984 126.23154 23.745873 124.29492 26.386719 C 120.59774 20.400803 116.90105 17.583984 108.97852 17.583984 z M 202.64062 17.583984 C 193.13358 17.583984 189.08421 22.512654 186.44336 26.914062 L 186.26758 26.914062 L 186.26758 18.992188 L 172.53516 18.992188 L 172.53516 95.048828 L 186.79492 95.048828 L 186.79492 66.703125 L 186.97266 66.703125 C 188.73323 69.696083 192.25385 75.154297 202.28906 75.154297 C 218.48624 75.154297 225.17578 60.716742 225.17578 45.751953 C 225.17578 26.913925 214.61246 17.583984 202.64062 17.583984 z M 320.59766 17.583984 C 296.30188 17.583984 294.01367 38.183181 294.01367 44.697266 C 294.01367 66.704308 305.98529 73.921875 321.6543 73.921875 C 331.16134 73.921875 342.25372 69.695863 346.12695 56.84375 L 346.12695 56.667969 L 330.98633 56.667969 C 329.92999 60.541208 325.70359 62.478516 321.6543 62.478516 C 309.85852 62.478516 308.97907 53.498515 308.62695 49.449219 L 346.83008 49.449219 L 346.83008 46.984375 C 346.83008 22.6886 331.51315 17.583984 320.59766 17.583984 z M 389.4375 17.583984 C 379.05018 17.583984 374.99912 23.744773 373.0625 27.089844 L 372.88672 27.089844 L 372.88672 18.992188 L 359.1543 18.992188 L 359.1543 73.921875 L 373.5918 73.921875 L 373.5918 42.583984 C 373.5918 34.309337 378.52135 29.908203 384.85938 29.908203 C 394.01431 29.908203 394.18945 36.597189 394.18945 40.646484 L 394.18945 73.921875 L 408.45117 73.921875 L 408.45117 35.892578 C 408.45117 23.920747 400.17694 17.583984 389.4375 17.583984 z M 447.18359 17.583984 C 432.39486 17.583984 419.01367 26.385756 419.01367 45.751953 C 419.01367 65.118151 432.39486 73.921875 447.18359 73.921875 C 461.97233 73.921875 475.35156 65.118151 475.35156 45.751953 C 475.35156 26.385756 461.97233 17.583984 447.18359 17.583984 z M 320.42188 29.203125 C 325.1754 29.203125 330.80918 31.843942 331.68945 40.470703 L 308.97852 40.470703 C 309.85879 33.428449 313.55567 29.203125 320.42188 29.203125 z M 447.18359 29.378906 C 458.4512 29.378906 460.38672 38.885756 460.38672 45.751953 C 460.38672 52.618151 458.4512 62.125 447.18359 62.125 C 436.09204 62.125 433.97852 52.618151 433.97852 45.751953 C 433.97852 38.885756 436.09204 29.378906 447.18359 29.378906 z M 198.41602 30.083984 C 207.57094 30.083984 210.5625 38.181833 210.5625 46.808594 C 210.5625 53.322678 207.92251 63.357422 198.76758 63.357422 C 189.7887 63.357422 186.26758 55.788045 186.26758 47.689453 C 186.26758 38.886636 188.55686 30.083984 198.41602 30.083984 z "
   transform="matrix(1.352381,0,0,1.352381,0,-0.1130956)" />
<g
   id="Registration_Mark"
   display="none"
   transform="translate(0,74.428571)">
	<g
   display="inline"
   id="g28">
		<g
   id="g26">
			<path
   fill="#005cb9"
   d="M 295.5,13 C 292.1,13 289,10.6 289,6.5 289,2.4 292.1,0 295.5,0 298.9,0 302,2.4 302,6.5 302,10.6 298.9,13 295.5,13 Z M 295.5,1.5 C 292.9,1.5 290.9,3.5 290.9,6.5 290.9,9.5 293,11.5 295.5,11.5 V 11.5 C 298,11.5 300.1,9.5 300.1,6.5 300.1,3.5 298,1.5 295.5,1.5 Z M 294.4,10 H 292.9 V 3 H 295.5 C 297.3,3 298.4,3.5 298.4,5.1 298.4,6.4 297.6,6.9 296.7,6.9 L 298.5,10 H 296.7 L 295.1,7.1 H 294.4 Z M 295.7,5.9 C 296.4,5.9 296.8,5.8 296.8,5 296.8,4.3 296,4.2 295.5,4.2 H 294.5 V 5.9 Z"
   id="path24" />
		</g>
	</g>
</g>
<metadata
   id="metadata3268"><rdf:RDF><cc:Work
       rdf:about=""><dc:title>Amphenol logo, 2021</dc:title><dc:description>From https://s21.q4cdn.com/564806605/files/design/logo.svg</dc:description></cc:Work></rdf:RDF></metadata></svg>
