<?xml version="1.0" encoding="utf-8"?>
<!-- Generator: Adobe Illustrator 27.0.0, SVG Export Plug-In . SVG Version: 6.00 Build 0)  -->
<svg version="1.1" id="Layer_1" xmlns="http://www.w3.org/2000/svg" xmlns:xlink="http://www.w3.org/1999/xlink" x="0px" y="0px"
	 viewBox="0 0 546.35 135.31" style="enable-background:new 0 0 546.35 135.31;" xml:space="preserve">
<style type="text/css">
	.st0{fill:#EA0437;}
</style>
<g>
	<rect x="295.02" class="st0" width="32.85" height="129.91"/>
	<path class="st0" d="M230.78,55.12c12.07-0.67,19.67,12.32,19.67,29.58c0,22.18-7.61,31.83-20.13,31.83
		c-11.85,0-20.11-9.64-20.11-31.83C210.21,71.48,214.91,55.12,230.78,55.12z M178.44,87.28c0,31.75,23.02,48.03,52.77,48.03
		c29.76,0,52.77-15.92,52.77-49.98c0-28.92-20.18-48.23-52.93-48.23C199.7,37.11,178.44,55,178.44,87.28z"/>
	<path class="st0" d="M394.1,112.65c-9.37,0-17.55-7.25-17.55-18.22h67.66c0.51-33.48-19.43-57.33-52.5-57.33
		c-28.59,0-50.51,19.6-50.51,49.87c0,31.29,22.11,48.34,50.68,48.34c20.8,0,43.28-7.64,49.43-30.7h-33.9
		C404.84,110,399.74,112.65,394.1,112.65z M408.77,75.6h-32.21C376.47,51.57,409.04,51.34,408.77,75.6z"/>
	<path class="st0" d="M97.89,129.93l0.02-57.03c0-8.88,7.2-16.09,16.09-16.09c8.9,0,16.11,7.21,16.11,16.09l-0.02,57.01l31.55,0
		l0.03-67.96c-0.52-6.41-6.81-15.86-14.36-20.02c-10.19-4.91-32.91-10.48-51.75,10.2c-6.05-6.43-13.6-11.33-21.91-13.6
		c-13.98-3.02-28.62,0.05-38.81,10.62c-1.41,1.19-2.52,4.02-2.42,1.66V39.29H0v90.63h32.43V72.83c0-8.88,7.22-16.1,16.12-16.1
		c8.88,0,16.08,7.22,16.08,16.1l-0.01,57.09H97.89z"/>
	<g>
		<path class="st0" d="M514.47,39.28L499,61.27c-4.85-6.72-9.28-14.9-13.72-21.99h-36.51l28.52,42.06c0,0-21.25,31.63-32.52,48.57
			l31.89,0.01l17.81-28.71c2.95,4.27,9.85,17.64,16.73,28.7h35.16c-8.84-14.55-29.98-48.72-29.98-48.72
			c8.69-14.34,20.39-27.57,29.45-41.91H514.47z"/>
	</g>
</g>
</svg>
