<?xml version="1.0" encoding="UTF-8" standalone="no"?>
<svg
   width="500"
   height="306.96881"
   version="1.1"
   viewBox="0 -3.4967 28.304484 16.12447"
   id="svg3"
   sodipodi:docname="Quanta_Computer_logo.svg"
   inkscape:version="1.4 (86a8ad7, 2024-10-11)"
   xmlns:inkscape="http://www.inkscape.org/namespaces/inkscape"
   xmlns:sodipodi="http://sodipodi.sourceforge.net/DTD/sodipodi-0.dtd"
   xmlns="http://www.w3.org/2000/svg"
   xmlns:svg="http://www.w3.org/2000/svg">
  <defs
     id="defs3" />
  <sodipodi:namedview
     id="namedview3"
     pagecolor="#ffffff"
     bordercolor="#000000"
     borderopacity="0.25"
     inkscape:showpageshadow="2"
     inkscape:pageopacity="0.0"
     inkscape:pagecheckerboard="0"
     inkscape:deskcolor="#d1d1d1"
     showguides="true"
     inkscape:zoom="1.5739015"
     inkscape:cx="268.12352"
     inkscape:cy="147.72208"
     inkscape:window-width="1920"
     inkscape:window-height="1001"
     inkscape:window-x="-9"
     inkscape:window-y="-9"
     inkscape:window-maximized="1"
     inkscape:current-layer="svg3" />
  <path
     d="m 8.5328166,2.3682901 c 0,-2.38381804 1.9325184,-4.316336 4.3163364,-4.316336 2.373632,0 4.296748,1.91449798 4.31516,4.281862 h 2.177364 c -0.0192,-3.569655 -2.917386,-6.4568748 -6.492524,-6.4568748 -3.5853244,0 -6.4913494,2.9064158 -6.4913494,6.4913488 0,3.574355 2.88722,6.472936 6.4568744,6.492132 v -2.175797 c -2.366972,-0.0192 -4.2818614,-1.943095 -4.2818614,-4.316335"
     fill="#0058a1"
     id="path1"
     style="stroke-width:1" />
  <path
     d="m 21.945659,3.0468061 h -9.156444 c 0.01332,0.566083 0.212721,1.193672 0.36433,1.514909 h 8.792114 z m 0,2.167962 H 13.39369 c 0.09911,0.287938 0.450516,0.978599 0.997011,1.514517 h 7.554958 z m -6.873699,2.158951 c 1.044413,0.886537 2.277652,1.431465 3.604128,1.514517 l 0.04231,0.0043 h 3.226871 v -1.518826 z"
     fill="#bd002c"
     id="path2"
     style="stroke-width:1" />
  <path
     d="m 1.6086906,11.660734 h -0.533793 l 0.420575,0.539236 c -0.09325,0.03554 -0.192332,0.05326 -0.292116,0.05225 -0.177211,0.0016 -0.34910302,-0.0605 -0.48444102,-0.174907 -0.18035,-0.147328 -0.27107,-0.351265 -0.27107,-0.607457 0,-0.23079 0.07149,-0.41876 0.216638,-0.568266 0.139062,-0.147692 0.33425,-0.22946 0.53705902,-0.224984 0.207928,0 0.385738,0.07766 0.531615,0.231153 0.146965,0.15386 0.219904,0.340379 0.219904,0.559557 0,0.16765 -0.045,0.32151 -0.135354,0.460855 z m 0.792887,-0.189422 c 0,-0.340379 -0.118661,-0.629229 -0.354168,-0.866189 -0.234782,-0.236959 -0.516375,-0.355619 -0.844053,-0.355619 -0.21409802,0 -0.41549502,0.05443 -0.60237702,0.162569 -0.183717,0.105861 -0.336001,0.258646 -0.441258,0.44271 -0.106599,0.185352 -0.161724,0.395825 -0.159665996378,0.609634 0,0.33167 0.114668996378,0.616892 0.342918996378,0.856391 0.229338,0.241313 0.516374,0.360337 0.86183302,0.360337 0.20684,0 0.394448,-0.04391 0.562461,-0.131724 l 0.201397,0.257643 h 0.533429 l -0.407874,-0.523995 c 0.202368,-0.2214 0.312341,-0.511847 0.307357,-0.811757 m 0.370861,-0.55992 h 0.428921 v 0.826272 c 0,0.161117 0.01052,0.273246 0.03338,0.336024 0.01923,0.05869 0.05691,0.109602 0.107411,0.145151 0.05368,0.03695 0.11776,0.05577 0.182891,0.05371 0.0733,0 0.134264,-0.01814 0.184704,-0.05189 0.05304,-0.03695 0.09295,-0.08982 0.113944,-0.150957 0.01705,-0.04899 0.02649,-0.154949 0.02649,-0.317881 v -0.840429 h 0.428195 v 0.725755 c 0,0.299737 -0.02359,0.503674 -0.0704,0.614351 -0.0577,0.134265 -0.142974,0.238048 -0.255103,0.309172 -0.113581,0.07185 -0.256554,0.108137 -0.429284,0.108137 -0.188334,0 -0.340379,-0.04173 -0.455774,-0.127007 -0.118201,-0.08658 -0.204448,-0.20983 -0.245305,-0.350539 -0.03411,-0.103783 -0.05008,-0.293205 -0.05008,-0.567178 z m 3.093167,0.49061 c 0.08963,0.09217 0.134264,0.211921 0.134264,0.361063 0,0.15132 -0.04463,0.273973 -0.134264,0.368684 -0.08714,0.09309 -0.210013,0.144353 -0.337476,0.140796 -0.131362,0 -0.241676,-0.04863 -0.33167,-0.143337 -0.09036,-0.09652 -0.135353,-0.217 -0.135353,-0.365054 0,-0.14624 0.04354,-0.265989 0.132813,-0.359612 0.08521,-0.09272 0.206129,-0.144391 0.332033,-0.141885 0.137167,0 0.250748,0.04681 0.33929,0.139345 m 0.116121,-0.301914 c -0.07178,-0.07428 -0.157475,-0.13371 -0.2522,-0.174907 -0.09215,-0.03964 -0.191437,-0.06002 -0.291753,-0.05987 -0.225347,0 -0.416221,0.08528 -0.575524,0.255466 -0.156037,0.168375 -0.235508,0.385376 -0.235508,0.649551 0,0.255465 0.08128,0.4692 0.244217,0.641204 0.163295,0.170553 0.355983,0.25728 0.579515,0.25728 0.09907,0 0.190874,-0.01814 0.276876,-0.05298 0.08419,-0.03556 0.169463,-0.09362 0.25474,-0.174181 v 0.18289 h 0.428195 v -1.713507 h -0.428195 v 0.188696 z m 0.856753,-0.188696 h 0.428921 v 0.176359 c 0.07892,-0.07065 0.168115,-0.128892 0.264538,-0.17273 0.07911,-0.03266 0.160392,-0.04935 0.242765,-0.04935 0.170552,0 0.314252,0.06096 0.433276,0.178899 0.09943,0.101606 0.149505,0.250385 0.149505,0.448154 v 1.132177 h -0.428558 v -0.749342 c 0,-0.203574 -0.0091,-0.338927 -0.02758,-0.406422 -0.01457,-0.06016 -0.04802,-0.114076 -0.09544,-0.153861 -0.04879,-0.03562 -0.107984,-0.05412 -0.168375,-0.05262 -0.0829,-0.0016 -0.162988,0.03003 -0.222444,0.08782 -0.06314,0.0577 -0.105235,0.137894 -0.12991,0.241314 -0.01198,0.05334 -0.01814,0.169101 -0.01814,0.346185 v 0.686927 h -0.428556 z m 1.99256,-0.630681 h 0.429284 v 0.630318 h 0.257643 v 0.365418 h -0.257643 v 1.348089 h -0.429284 v -1.348089 h -0.220629 v -0.365055 h 0.220629 z m 2.0680394,1.121291 c 0.09036,0.09217 0.134264,0.211921 0.134264,0.361063 0,0.15132 -0.04391,0.273973 -0.134264,0.368684 -0.08717,0.09305 -0.210022,0.144306 -0.337476,0.140796 -0.126036,0.0017 -0.246807,-0.05047 -0.332034,-0.143337 -0.08927,-0.09652 -0.134627,-0.217 -0.134627,-0.365054 0,-0.14624 0.04355,-0.265989 0.132451,-0.359612 0.08818,-0.09362 0.199582,-0.141885 0.333121,-0.141885 0.136805,0 0.24966,0.04681 0.338565,0.139345 m 0.116121,-0.301914 c -0.07191,-0.0743 -0.157722,-0.133726 -0.252563,-0.174907 -0.09225,-0.03973 -0.191673,-0.06011 -0.292116,-0.05987 -0.225348,0 -0.416584,0.08528 -0.5737104,0.255466 -0.15894,0.168375 -0.236959,0.385376 -0.236959,0.649551 0,0.255465 0.08165,0.4692 0.243854,0.641204 0.1632954,0.170553 0.3570714,0.25728 0.5798784,0.25728 0.09475,5.49e-4 0.188684,-0.01744 0.276513,-0.05298 0.08455,-0.03556 0.170189,-0.09362 0.255103,-0.174181 v 0.18289 h 0.427469 v -1.713507 h -0.427469 v 0.188696 z m 3.939397,-0.385738 -0.307357,0.294656 c -0.208655,-0.22063 -0.443799,-0.332033 -0.705797,-0.332033 -0.208949,-0.0047 -0.410506,0.07739 -0.556654,0.226799 -0.149168,0.14616 -0.231253,0.347499 -0.226798,0.55629 0,0.153861 0.03411,0.291028 0.100517,0.410415 0.06713,0.119024 0.161117,0.212646 0.284133,0.280142 0.121564,0.06822 0.257643,0.101605 0.407149,0.101605 0.127732,0 0.243853,-0.02322 0.349088,-0.07076 0.106323,-0.04717 0.221718,-0.134265 0.348362,-0.259457 l 0.297922,0.313163 c -0.171278,0.167286 -0.332759,0.284133 -0.485167,0.348725 -0.152046,0.06532 -0.325864,0.09725 -0.521092,0.09725 -0.359248,0 -0.654994,-0.114306 -0.884332,-0.342193 -0.229702,-0.22825 -0.344008,-0.521092 -0.344008,-0.877801 0,-0.23079 0.05298,-0.436541 0.157126,-0.61544 0.107557,-0.182306 0.262406,-0.332139 0.448154,-0.433638 0.19216,-0.107722 0.408937,-0.163854 0.629229,-0.162932 0.191599,0 0.375215,0.04028 0.551937,0.121564 0.176721,0.07983 0.329129,0.194502 0.457588,0.343645 m 1.488523,0.693821 c 0.0889,0.09253 0.131725,0.213009 0.131725,0.359249 0,0.148417 -0.04427,0.269618 -0.133539,0.362877 -0.08582,0.09362 -0.207972,0.145504 -0.334936,0.142248 -0.133902,0 -0.244217,-0.04717 -0.332396,-0.140433 -0.08782,-0.09326 -0.131361,-0.214098 -0.131361,-0.364329 0,-0.145151 0.04463,-0.264901 0.133176,-0.357434 0.08519,-0.09258 0.206265,-0.143787 0.332032,-0.140434 0.136079,0 0.248934,0.04572 0.335299,0.137893 m -0.939127,-0.30772 c -0.192849,0.168218 -0.301169,0.413297 -0.295745,0.669146 0,0.250023 0.08745,0.462306 0.261272,0.637576 0.174181,0.174181 0.38465,0.261997 0.631407,0.261997 0.167286,0 0.320421,-0.04028 0.458677,-0.119749 0.139708,-0.07874 0.249297,-0.189059 0.330218,-0.330219 0.08056,-0.140433 0.120475,-0.290664 0.120475,-0.453597 0,-0.159666 -0.03992,-0.309534 -0.120475,-0.448153 -0.07896,-0.138248 -0.194296,-0.252207 -0.333484,-0.329493 -0.139036,-0.08018 -0.296726,-0.122357 -0.457226,-0.12229 -0.224258,0 -0.422389,0.07838 -0.595119,0.234782 m 1.850675,-0.188696 h 0.428558 v 0.199582 c 0.07439,-0.08201 0.156038,-0.142973 0.246757,-0.183253 0.08963,-0.04064 0.188696,-0.06205 0.295382,-0.06205 0.107411,0 0.203935,0.02721 0.291024,0.08128 0.08709,0.05262 0.156034,0.130636 0.209013,0.232967 0.06786,-0.101968 0.152406,-0.18035 0.251834,-0.232967 0.09979,-0.05443 0.208655,-0.08128 0.327316,-0.08128 0.122652,0 0.229701,0.02903 0.322961,0.08491 0.09326,0.05806 0.159666,0.132087 0.200308,0.223169 0.04028,0.09181 0.06169,0.240588 0.06169,0.445614 v 1.00517 h -0.429284 v -0.864737 c 0,-0.194139 -0.02468,-0.325138 -0.07366,-0.393359 -0.05044,-0.06931 -0.123378,-0.103783 -0.221355,-0.103783 -0.150347,7.05e-4 -0.284271,0.09517 -0.335298,0.236596 -0.02976,0.07403 -0.04354,0.192325 -0.04354,0.355257 v 0.770389 h -0.428914 v -0.82736 c 0,-0.151683 -0.01089,-0.261998 -0.03447,-0.331308 -0.01754,-0.06045 -0.05342,-0.113963 -0.102693,-0.153134 -0.04803,-0.03446 -0.106009,-0.0523 -0.165109,-0.0508 -0.07073,2.46e-4 -0.139574,0.02285 -0.19668,0.06459 -0.05999,0.04568 -0.105386,0.107846 -0.130636,0.178898 -0.02976,0.07584 -0.04463,0.195954 -0.04463,0.359249 v 0.759865 h -0.428194 z m 4.248921,0.49315 c 0.08854,0.09362 0.13245,0.21301 0.13245,0.359975 0,0.148054 -0.045,0.268529 -0.135353,0.364691 -0.08495,0.09326 -0.205904,0.145473 -0.332033,0.143337 -0.127548,0.0032 -0.250382,-0.04828 -0.337476,-0.141522 -0.08999,-0.09362 -0.134627,-0.216275 -0.134627,-0.367595 0,-0.149505 0.04463,-0.269255 0.134264,-0.361063 0.08963,-0.0929 0.202486,-0.139708 0.337476,-0.139708 0.135716,0 0.246757,0.04826 0.335299,0.141523 m -1.216002,-0.492788 v 2.342737 h 0.429284 v -0.812846 c 0.08346,0.08129 0.168738,0.139345 0.254014,0.174181 0.08814,0.03581 0.182466,0.05393 0.277601,0.05334 0.222807,0 0.415132,-0.086 0.578427,-0.257642 0.162932,-0.171642 0.244216,-0.385377 0.244216,-0.640842 0,-0.263812 -0.07874,-0.481538 -0.236596,-0.649551 -0.157489,-0.170552 -0.348362,-0.255103 -0.573346,-0.255103 -0.10342,0 -0.201034,0.02069 -0.292117,0.05951 -0.09466,0.04147 -0.180328,0.101004 -0.252199,0.17527 v -0.189054 z m 2.129727,0 h 0.428921 v 0.826272 c 0,0.161117 0.01089,0.273246 0.03302,0.336024 0.02213,0.06278 0.05806,0.111041 0.108863,0.145151 0.05325,0.03698 0.117003,0.05581 0.181802,0.05371 0.07258,0 0.134265,-0.01814 0.185068,-0.05189 0.05261,-0.03706 0.09202,-0.08995 0.112491,-0.150957 0.01814,-0.04899 0.02722,-0.154949 0.02722,-0.317881 v -0.840429 h 0.428195 v 0.725755 c 0,0.299737 -0.02395,0.503674 -0.07076,0.614351 -0.05806,0.134265 -0.141523,0.238048 -0.256192,0.309172 -0.111766,0.07185 -0.254014,0.108137 -0.427832,0.108137 -0.187971,0 -0.339291,-0.04173 -0.455774,-0.127007 -0.118204,-0.08651 -0.204355,-0.209797 -0.244943,-0.350539 -0.03374,-0.103783 -0.05007,-0.293205 -0.05007,-0.567178 z m 1.992923,-0.630681 h 0.428921 v 0.630318 h 0.257643 v 0.365418 h -0.257643 v 1.348089 h -0.428921 v -1.348089 h -0.220992 v -0.365055 h 0.220992 z m 1.262814,1.272974 c 0.04899,-0.10596 0.102331,-0.179261 0.159666,-0.222081 0.09072,-0.06604 0.196316,-0.09943 0.31788,-0.09943 0.109952,0 0.207929,0.02903 0.29248,0.08854 0.08419,0.06024 0.14007,0.137893 0.168737,0.232967 z m 1.367322,0.252563 c 0,-0.283045 -0.08346,-0.50948 -0.254015,-0.681484 -0.168737,-0.17273 -0.388279,-0.259095 -0.659711,-0.259095 -0.254014,0 -0.465571,0.08709 -0.634672,0.260547 -0.169464,0.172366 -0.254014,0.389367 -0.254014,0.650639 0,0.25474 0.08455,0.468111 0.254014,0.637212 0.169101,0.169827 0.387553,0.25474 0.656808,0.25474 0.172004,0 0.321872,-0.03084 0.447428,-0.09217 0.127007,-0.06169 0.234419,-0.157488 0.325138,-0.285947 l -0.362515,-0.170552 c -0.108863,0.110888 -0.258296,0.172498 -0.41368,0.170552 -0.13499,0 -0.244579,-0.03629 -0.330944,-0.109226 -0.08769,-0.0749 -0.14456,-0.179601 -0.159666,-0.293931 h 1.384014 z m 0.251111,-0.894856 h 0.371586 v 0.216275 c 0.03317,-0.07794 0.08714,-0.145239 0.156038,-0.194502 0.06532,-0.04427 0.136079,-0.0675 0.213734,-0.0675 0.05443,0 0.112492,0.01669 0.172004,0.04572 l -0.132087,0.370861 c -0.03729,-0.02165 -0.07895,-0.03467 -0.121927,-0.0381 -0.06568,0 -0.120112,0.04064 -0.165472,0.123378 -0.04536,0.08165 -0.06786,0.242039 -0.06786,0.481539 l 0.0025,0.08346 v 0.69237 h -0.428558 z"
     fill="#231815"
     id="path3"
     sodipodi:nodetypes="cccccscccsccccsccccscccccccscccccsccsccsccsccscccscccccccscsccccccccccccscsccscccccscccccccccccccccccscccscscccccscccccccccccccccccsccccsssccccccscccsccccccsccsccccccccscccsccsccscccsccscccccsccccscccscsccccccccscsccccccssccccsccsccsccsccccccccccccccccscccccscscsccccccccccccsccccccccc"
     style="stroke-width:0.999997" />
</svg>
