<svg xmlns="http://www.w3.org/2000/svg" viewBox="0 0 294.18 187.3"><g transform="translate(0-341.36)"><path d="m293.81 401.35c1.951 15.988-4.139 30.998-11.174 42.04-14.429 22.642-36.35 39.05-60.04 52.32-26.528 14.864-58.947 26.362-95.32 30.97-10.983 1.392-24.08 2.153-38.09 1.941-8.962-.138-17.18-1.53-25.07-3.01-23.35-4.384-43.11-13.326-54.995-29.32-4.167-5.609-6.925-11.926-8.453-19.419-.831-4.07-.721-7.648-.583-10.969.803-19.292 11.875-35.09 22.251-46.888 8.828-10.05 18.796-18.238 29.828-26.305 1.405.83.22 3.114-.391 3.981-10.201 7.265-19.09 14.677-27.01 23.977-7.663 8.991-14.999 19.533-17.586 33.3-3.096 16.48 3.617 29.72 11.952 37.37 17.18 15.78 45.833 23.668 79.38 22.329 16.05-.639 31.559-2.625 45.28-5.629 27.84-6.101 52.17-15.576 73.75-28.06 21.03-12.166 41.01-27.514 53.25-48.638 3.067-5.295 5.752-11.274 7.19-18.251 1.524-7.391 1.039-15.637-1.267-22.23-4.22-12.08-13.716-20.2-24.87-26.02-11.11-5.792-24.731-9.455-39.739-11.164-32.33-3.675-64.48 2.064-89.88 9.614-6.514 1.937-12.832 4.127-19.04 6.406-6.216 2.279-12.351 4.986-18.08 7.668 1.43-2.1 3.02-4.04 4.762-5.824 26.402-11.148 54.624-20.282 89.49-23.01 37.25-2.91 70.809 3.643 92.3 18.739 10.714 7.522 20.23 18.291 22.15 34.07" fill="#91afe5"/><g fill="#003594"><path d="m212.59 477.37v3.01c-11.398-.547-22.641-.601-34.01 0v-3.01c3.838-.287 7.784-.849 9.425-3.495 1.257-2.027 1.165-5.969 1.165-9.902.001-18.298-.001-36.74 0-54.946 0-6.857.719-15.8-1.555-20.386-1.499-3.02-5.782-3.598-9.813-3.786v-3.01c7.953-1.633 15.98-3.191 23.902-4.854h.195v73.39c0 3.852-.082 8.199.097 12.134.189 4.143-.394 8.393 1.069 11.07 1.502 2.743 5.619 3.587 9.522 3.786"/><path d="m132.62 478.53c15.685-.197 20.902-14.771 20.501-31.453-.393-16.348-5.628-30.17-22.15-29.997-15.741.165-20.944 15.738-20.501 31.647.474 17.03 6.41 30 22.15 29.803m35.464-33.01c.802 11.563-3.776 19.871-9.425 25.628-5.882 5.995-13.677 9.943-24.485 10.678-10.959.746-20.245-3.293-26.525-8.543-6.271-5.243-11.233-12.921-12.145-23.01-1.067-11.796 3.859-20.07 9.424-25.628 5.532-5.527 13.926-10.346 24.485-10.97 11.613-.685 20.599 3.79 26.622 8.737 6.218 5.107 11.313 12.508 12.05 23.1"/></g><path d="m81.61 387.18c.378-4.983-2.247-8.595-4.567-10.582-2.539-2.175-6.282-4.02-11.562-3.689-4.473.278-7.195 1.906-9.619 4.077-1.975 1.768-4.299 4.647-4.275 9.222.046 8.618 8.384 13.902 16.518 13.11 6.551-.642 12.954-4.867 13.505-12.135m17.392-24.56c-2.191 2.559-6.621 5.751-9.133 8.931-1.742 1.786-3.334 3.723-4.761 5.824-.141.239-.434.599-1.531 2.158-.292.34-1.563 2.51-1.383 3.375.296 1.427 3.842 1.721 5.538 1.941 2.465.321 4.621.341 6.801.583-2.245.495-4.631.825-6.995 1.456-1.888.504-4.994 1.175-5.247 3.107-.23 1.757 1.755 3.684 2.818 4.854 3.48 3.829 8.479 7.861 11.465 11.07-4.169-2.375-8.718-5.04-13.797-7.183-1.553-.655-5.579-2.791-6.607-.583-.664 1.427-.279 4.171-.194 5.922.284 5.934 1.812 11.02 2.623 16.309-1.386-2.11-2.439-4.553-3.886-6.601.017-.083-.038-.092-.098-.097-1.475-2.527-2.72-4.92-4.469-7.475-1.161-1.696-3.787-5.842-6.219-5.728-2.51.118-3.848 5.03-4.761 7.183-1.247 2.945-2.038 5.898-2.818 9.03.255-4.481 1.223-9.81 1.069-15.338-.044-1.602-.042-3.974-1.166-4.271-1.536-.407-3.211 1.132-4.081 1.747-1.281.907-2.2 1.717-3.401 2.427.998-1.527 2.247-2.803 3.01-4.563.608-.867 1.795-3.148.389-3.98-4.51-.729-11.369.252-16.226.873-5.092.653-10.04 1.283-14.671 1.747 7.169-1.734 15.31-3.633 22.833-5.727 1.59-.443 6.367-1.317 6.412-3.01.04-1.458-3.549-3.211-4.664-3.883-1.946-1.173-3.681-1.942-5.538-2.912 2.292-.302 10.406 2.815 11.174-.485.365-1.57-.986-3.911-1.652-5.242-2.266-4.537-5.465-8.987-7.87-12.814 2.347 1.792 4.802 4.181 7.578 6.408 2.355 1.888 5.746 4.719 8.939 5.145 4.04.539 4.339-4.214 4.955-7.28 1.53-7.624 2.298-15.632 2.72-24.17.786 8.463 1.862 17.359 3.692 25.05.593 2.488 1.273 6.676 4.081 6.892 2.171.167 4.987-1.47 6.801-2.136 6.638-2.437 12.985-5.268 18.267-8.543" fill="#757c83"/><g fill="#003594"><path d="m85.31 477.37v3.01c-11.275-.626-22.482-.53-33.812 0v-3.01c2.729-.199 6.05-.646 7.87-2.039 3.01-2.298 2.526-8.225 2.526-13.785v-25.531c0-3.286.378-9.866-.777-12.04-1.506-2.832-6.096-3.173-10.299-2.815v-3.01c7.931-1.492 15.855-2.992 23.804-4.465.059.006.115.014.098.097v44.946c0 4.878-.652 10.754.777 14.173 1.438 3.438 5.706 4.247 9.814 4.465"/><path d="m65.776 379.8c9.408-1.165 9.128 12.465.972 12.523-3.153.022-6.337-2.313-6.315-6.31.019-3.476 2.417-5.851 5.344-6.213"/></g><path d="m239.53 493.64c.725 0 1.433.187 2.124.561.691.37 1.229.903 1.615 1.598.386.691.578 1.412.578 2.164 0 .744-.191 1.46-.573 2.147-.378.687-.91 1.222-1.598 1.603-.683.378-1.399.567-2.147.567-.748 0-1.466-.189-2.153-.567-.683-.382-1.216-.916-1.598-1.603-.382-.687-.573-1.403-.573-2.147 0-.752.193-1.474.578-2.164.389-.695.93-1.227 1.62-1.598.691-.374 1.399-.561 2.124-.561m0 .716c-.607 0-1.199.157-1.775.47-.573.309-1.021.754-1.346 1.334-.324.576-.487 1.178-.487 1.804 0 .622.158 1.22.475 1.792.321.569.767 1.014 1.34 1.334.573.317 1.17.475 1.792.475.622 0 1.22-.158 1.792-.475.573-.321 1.017-.765 1.334-1.334.317-.573.475-1.17.475-1.792 0-.626-.162-1.227-.487-1.804-.321-.58-.769-1.025-1.346-1.334-.576-.313-1.166-.47-1.769-.47m-1.895 5.995v-4.65h1.598c.546 0 .941.044 1.185.132.244.084.439.233.584.447.145.214.218.441.218.681 0 .34-.122.636-.366.888-.24.252-.561.393-.962.424.164.069.296.151.395.246.187.183.416.491.687.922l.567.91h-.916l-.412-.733c-.324-.576-.586-.937-.784-1.082-.137-.107-.338-.16-.601-.16h-.441v1.976h-.75m.75-2.617h.91c.435 0 .731-.065.888-.195.16-.13.24-.302.24-.515 0-.137-.038-.26-.115-.366-.076-.111-.183-.193-.321-.246-.134-.053-.384-.08-.75-.08h-.853v1.403" transform="scale(1.0004.99956)" fill="#757c83"/></g></svg>