<svg xmlns="http://www.w3.org/2000/svg" viewBox="0 0 120 120" role="img" aria-label="Two-phase cooling course mark">
  <defs>
    <linearGradient id="g" x1="18" y1="18" x2="102" y2="102" gradientUnits="userSpaceOnUse">
      <stop offset="0" stop-color="#8DC63F"/>
      <stop offset="1" stop-color="#343895"/>
    </linearGradient>
  </defs>
  <circle cx="60" cy="60" r="54" fill="#fff" stroke="#8DC63F" stroke-width="6"/>
  <path d="M60 20c12 16 24 31 24 49 0 16-10 29-24 29S36 85 36 69c0-18 12-33 24-49z" fill="url(#g)" opacity="0.95"/>
  <circle cx="50" cy="67" r="8" fill="#fff" opacity="0.92"/>
  <circle cx="69" cy="58" r="5.5" fill="#fff" opacity="0.88"/>
  <circle cx="63" cy="78" r="4" fill="#fff" opacity="0.78"/>
  <path d="M30 44a36 36 0 0 1 60-9" fill="none" stroke="#343895" stroke-width="6" stroke-linecap="round"/>
  <path d="M85 29l5 6-8 3" fill="none" stroke="#343895" stroke-width="5" stroke-linecap="round" stroke-linejoin="round"/>
  <path d="M90 76a36 36 0 0 1-60 9" fill="none" stroke="#8DC63F" stroke-width="6" stroke-linecap="round"/>
  <path d="M35 91l-5-6 8-3" fill="none" stroke="#8DC63F" stroke-width="5" stroke-linecap="round" stroke-linejoin="round"/>
</svg>
