<svg xmlns="http://www.w3.org/2000/svg" viewBox="0 0 768 360" role="img" aria-label="遙測軟體棧">
  <style>text { font-family: "PingFang TC", "Microsoft JhengHei", "Noto Sans CJK TC", Arial, sans-serif; letter-spacing: 0; }</style>
  <defs>
    <marker id="arrow" markerWidth="10" markerHeight="10" refX="0" refY="3" orient="auto" markerUnits="userSpaceOnUse"><path d="M0,0 L9,3 L0,6 Z" fill="#8DC63F"/></marker>
  </defs>
  <rect width="768" height="360" fill="#FFFFFF"/>

  <text x="384" y="44" text-anchor="middle" font-size="24" font-weight="800" fill="#343895">遙測軟體棧</text>
  <rect x="64" y="80" width="190" height="150" rx="12" fill="#F8FAFC" stroke="#343895" stroke-width="3"/>
  <text x="159" y="120" text-anchor="middle" font-size="20" font-weight="800" fill="#343895">收發器</text>
  <text x="159" y="152" text-anchor="middle" font-size="17" fill="#5F6062">韌體</text>
  <text x="159" y="178" text-anchor="middle" font-size="17" fill="#5F6062">指標</text>
  <text x="159" y="204" text-anchor="middle" font-size="17" fill="#5F6062">事件日誌</text>
  <line x1="260" y1="155" x2="315" y2="155" stroke="#8DC63F" stroke-width="5" marker-end="url(#arrow)"/>
  <rect x="324" y="80" width="190" height="150" rx="12" fill="#F8FAFC" stroke="#343895" stroke-width="3"/>
  <text x="419" y="120" text-anchor="middle" font-size="20" font-weight="800" fill="#343895">交換機主機</text>
  <text x="419" y="152" text-anchor="middle" font-size="17" fill="#5F6062">軟體</text>
  <text x="419" y="178" text-anchor="middle" font-size="17" fill="#5F6062">輪詢</text>
  <text x="419" y="204" text-anchor="middle" font-size="17" fill="#5F6062">運維 API</text>
  <line x1="520" y1="155" x2="575" y2="155" stroke="#8DC63F" stroke-width="5" marker-end="url(#arrow)"/>
  <rect x="584" y="80" width="130" height="150" rx="12" fill="#F8FAFC" stroke="#343895" stroke-width="3"/>
  <text x="649" y="120" text-anchor="middle" font-size="20" font-weight="800" fill="#343895">遙測</text>
  <text x="649" y="146" text-anchor="middle" font-size="20" font-weight="800" fill="#343895">伺服器</text>
  <text x="649" y="180" text-anchor="middle" font-size="17" fill="#5F6062">網路健康</text>
  <text x="649" y="206" text-anchor="middle" font-size="17" fill="#5F6062">檢視</text>
  <rect x="112" y="270" width="544" height="42" rx="21" fill="#EEF7E6"/>
  <text x="384" y="297" text-anchor="middle" font-size="18" font-weight="700" fill="#343895">從模組資料到大規模運維的統一介面</text>

</svg>
