<svg xmlns="http://www.w3.org/2000/svg" viewBox="0 0 1920 1080" role="img" font-family="Arial,sans-serif"><title>Mixed-facility baseline versus local peak demand</title><defs>
<linearGradient id="rackFace" x2="1" y2="1"><stop stop-color="#737678"/><stop offset="1" stop-color="#454749"/></linearGradient>
<linearGradient id="metal" x2="0" y2="1"><stop stop-color="#E7E9E5"/><stop offset=".45" stop-color="#B5B8B2"/><stop offset="1" stop-color="#777B75"/></linearGradient>
<linearGradient id="floor" x2="0" y2="1"><stop stop-color="#FAFBF9"/><stop offset="1" stop-color="#E7E9E5"/></linearGradient>
<filter id="shadow" filterUnits="userSpaceOnUse" x="-300" y="-300" width="2600" height="1700"><feDropShadow dx="0" dy="12" stdDeviation="12" flood-color="#5F6062" flood-opacity=".17"/></filter>
<pattern id="vent" width="24" height="16" patternUnits="userSpaceOnUse"><path d="M3 4h18M3 10h18" stroke="#929693" stroke-width="2"/></pattern>
<pattern id="mesh" width="12" height="12" patternUnits="userSpaceOnUse"><circle cx="3" cy="3" r="2" fill="#A6AAA4"/></pattern>
</defs><rect width="1920" height="1080" fill="#fff"/><text class="" x="75" y="90" font-size="52" font-weight="800" fill="#6FA030" text-anchor="start">MIXED-FACILITY PLANNING</text><path d="M90 810H1690L1850 955H245Z" fill="url(#floor)" stroke="#CDD1CA" stroke-width="3"/><path class="" d="M277 810L432 952" fill="none" stroke="#D5D8D1" stroke-width="2" stroke-linecap="round" stroke-linejoin="round" /><path class="" d="M454 810L609 952" fill="none" stroke="#D5D8D1" stroke-width="2" stroke-linecap="round" stroke-linejoin="round" /><path class="" d="M631 810L786 952" fill="none" stroke="#D5D8D1" stroke-width="2" stroke-linecap="round" stroke-linejoin="round" /><path class="" d="M808 810L963 952" fill="none" stroke="#D5D8D1" stroke-width="2" stroke-linecap="round" stroke-linejoin="round" /><path class="" d="M985 810L1140 952" fill="none" stroke="#D5D8D1" stroke-width="2" stroke-linecap="round" stroke-linejoin="round" /><path class="" d="M1162 810L1317 952" fill="none" stroke="#D5D8D1" stroke-width="2" stroke-linecap="round" stroke-linejoin="round" /><path class="" d="M1339 810L1494 952" fill="none" stroke="#D5D8D1" stroke-width="2" stroke-linecap="round" stroke-linejoin="round" /><path class="" d="M1516 810L1671 952" fill="none" stroke="#D5D8D1" stroke-width="2" stroke-linecap="round" stroke-linejoin="round" /><path class="" d="M130 846L1730 846" fill="none" stroke="#D5D8D1" stroke-width="2" stroke-linecap="round" stroke-linejoin="round" /><path class="" d="M170 882L1770 882" fill="none" stroke="#D5D8D1" stroke-width="2" stroke-linecap="round" stroke-linejoin="round" /><path class="" d="M210 918L1810 918" fill="none" stroke="#D5D8D1" stroke-width="2" stroke-linecap="round" stroke-linejoin="round" /><g class="" transform="translate(250 440)"><path d="M0 0l31.05 -19.872h135L135 0Z" fill="#B4B8B1" stroke="#5F6062" stroke-width="3"/><path d="M135 0l31.05 -19.872v370L135 370Z" fill="#454749" stroke="#5F6062" stroke-width="3"/><rect x="0" y="0" width="135" height="370" rx="6" fill="url(#rackFace)" stroke="#5F6062" stroke-width="3"/><rect x="10" y="18" width="115" height="29" rx="3" fill="#383B3C" stroke="#929693" stroke-width="1.5"/><path class="" d="M20 27h70M20 36h70" fill="none" stroke="#949799" stroke-width="2" stroke-linecap="round" stroke-linejoin="round" /><circle cx="111" cy="32" r="3.5" fill="#8DC63F"/><rect x="10" y="56" width="115" height="29" rx="3" fill="#383B3C" stroke="#929693" stroke-width="1.5"/><path class="" d="M20 65h70M20 74h70" fill="none" stroke="#949799" stroke-width="2" stroke-linecap="round" stroke-linejoin="round" /><circle cx="111" cy="70" r="3.5" fill="#8DC63F"/><rect x="10" y="94" width="115" height="29" rx="3" fill="#383B3C" stroke="#929693" stroke-width="1.5"/><path class="" d="M20 103h70M20 112h70" fill="none" stroke="#949799" stroke-width="2" stroke-linecap="round" stroke-linejoin="round" /><circle cx="111" cy="108" r="3.5" fill="#8DC63F"/><rect x="10" y="132" width="115" height="29" rx="3" fill="#383B3C" stroke="#929693" stroke-width="1.5"/><path class="" d="M20 141h70M20 150h70" fill="none" stroke="#949799" stroke-width="2" stroke-linecap="round" stroke-linejoin="round" /><circle cx="111" cy="146" r="3.5" fill="#8DC63F"/><rect x="10" y="170" width="115" height="29" rx="3" fill="#383B3C" stroke="#929693" stroke-width="1.5"/><path class="" d="M20 179h70M20 188h70" fill="none" stroke="#949799" stroke-width="2" stroke-linecap="round" stroke-linejoin="round" /><circle cx="111" cy="184" r="3.5" fill="#8DC63F"/><rect x="10" y="208" width="115" height="29" rx="3" fill="#383B3C" stroke="#929693" stroke-width="1.5"/><path class="" d="M20 217h70M20 226h70" fill="none" stroke="#949799" stroke-width="2" stroke-linecap="round" stroke-linejoin="round" /><circle cx="111" cy="222" r="3.5" fill="#8DC63F"/><rect x="10" y="246" width="115" height="29" rx="3" fill="#383B3C" stroke="#929693" stroke-width="1.5"/><path class="" d="M20 255h70M20 264h70" fill="none" stroke="#949799" stroke-width="2" stroke-linecap="round" stroke-linejoin="round" /><circle cx="111" cy="260" r="3.5" fill="#8DC63F"/><rect x="10" y="284" width="115" height="29" rx="3" fill="#383B3C" stroke="#929693" stroke-width="1.5"/><path class="" d="M20 293h70M20 302h70" fill="none" stroke="#949799" stroke-width="2" stroke-linecap="round" stroke-linejoin="round" /><circle cx="111" cy="298" r="3.5" fill="#8DC63F"/><rect x="10" y="322" width="115" height="29" rx="3" fill="#383B3C" stroke="#929693" stroke-width="1.5"/><path class="" d="M20 331h70M20 340h70" fill="none" stroke="#949799" stroke-width="2" stroke-linecap="round" stroke-linejoin="round" /><circle cx="111" cy="336" r="3.5" fill="#8DC63F"/><rect x="14" y="351" width="107" height="10" rx="2" fill="#252829" stroke="#252829" stroke-width="0"/></g><g class="" transform="translate(465 440)"><path d="M0 0l31.05 -19.872h135L135 0Z" fill="#B4B8B1" stroke="#5F6062" stroke-width="3"/><path d="M135 0l31.05 -19.872v370L135 370Z" fill="#454749" stroke="#5F6062" stroke-width="3"/><rect x="0" y="0" width="135" height="370" rx="6" fill="url(#rackFace)" stroke="#5F6062" stroke-width="3"/><rect x="10" y="18" width="115" height="29" rx="3" fill="#383B3C" stroke="#929693" stroke-width="1.5"/><path class="" d="M20 27h70M20 36h70" fill="none" stroke="#949799" stroke-width="2" stroke-linecap="round" stroke-linejoin="round" /><circle cx="111" cy="32" r="3.5" fill="#8DC63F"/><rect x="10" y="56" width="115" height="29" rx="3" fill="#383B3C" stroke="#929693" stroke-width="1.5"/><path class="" d="M20 65h70M20 74h70" fill="none" stroke="#949799" stroke-width="2" stroke-linecap="round" stroke-linejoin="round" /><circle cx="111" cy="70" r="3.5" fill="#8DC63F"/><rect x="10" y="94" width="115" height="29" rx="3" fill="#383B3C" stroke="#929693" stroke-width="1.5"/><path class="" d="M20 103h70M20 112h70" fill="none" stroke="#949799" stroke-width="2" stroke-linecap="round" stroke-linejoin="round" /><circle cx="111" cy="108" r="3.5" fill="#8DC63F"/><rect x="10" y="132" width="115" height="29" rx="3" fill="#383B3C" stroke="#929693" stroke-width="1.5"/><path class="" d="M20 141h70M20 150h70" fill="none" stroke="#949799" stroke-width="2" stroke-linecap="round" stroke-linejoin="round" /><circle cx="111" cy="146" r="3.5" fill="#8DC63F"/><rect x="10" y="170" width="115" height="29" rx="3" fill="#383B3C" stroke="#929693" stroke-width="1.5"/><path class="" d="M20 179h70M20 188h70" fill="none" stroke="#949799" stroke-width="2" stroke-linecap="round" stroke-linejoin="round" /><circle cx="111" cy="184" r="3.5" fill="#8DC63F"/><rect x="10" y="208" width="115" height="29" rx="3" fill="#383B3C" stroke="#929693" stroke-width="1.5"/><path class="" d="M20 217h70M20 226h70" fill="none" stroke="#949799" stroke-width="2" stroke-linecap="round" stroke-linejoin="round" /><circle cx="111" cy="222" r="3.5" fill="#8DC63F"/><rect x="10" y="246" width="115" height="29" rx="3" fill="#383B3C" stroke="#929693" stroke-width="1.5"/><path class="" d="M20 255h70M20 264h70" fill="none" stroke="#949799" stroke-width="2" stroke-linecap="round" stroke-linejoin="round" /><circle cx="111" cy="260" r="3.5" fill="#8DC63F"/><rect x="10" y="284" width="115" height="29" rx="3" fill="#383B3C" stroke="#929693" stroke-width="1.5"/><path class="" d="M20 293h70M20 302h70" fill="none" stroke="#949799" stroke-width="2" stroke-linecap="round" stroke-linejoin="round" /><circle cx="111" cy="298" r="3.5" fill="#8DC63F"/><rect x="10" y="322" width="115" height="29" rx="3" fill="#383B3C" stroke="#929693" stroke-width="1.5"/><path class="" d="M20 331h70M20 340h70" fill="none" stroke="#949799" stroke-width="2" stroke-linecap="round" stroke-linejoin="round" /><circle cx="111" cy="336" r="3.5" fill="#8DC63F"/><rect x="14" y="351" width="107" height="10" rx="2" fill="#252829" stroke="#252829" stroke-width="0"/></g><g class="" transform="translate(680 440)"><path d="M0 0l31.05 -19.872h135L135 0Z" fill="#B4B8B1" stroke="#5F6062" stroke-width="3"/><path d="M135 0l31.05 -19.872v370L135 370Z" fill="#454749" stroke="#5F6062" stroke-width="3"/><rect x="0" y="0" width="135" height="370" rx="6" fill="url(#rackFace)" stroke="#5F6062" stroke-width="3"/><rect x="10" y="18" width="115" height="29" rx="3" fill="#383B3C" stroke="#929693" stroke-width="1.5"/><path class="" d="M20 27h70M20 36h70" fill="none" stroke="#949799" stroke-width="2" stroke-linecap="round" stroke-linejoin="round" /><circle cx="111" cy="32" r="3.5" fill="#8DC63F"/><rect x="10" y="56" width="115" height="29" rx="3" fill="#383B3C" stroke="#929693" stroke-width="1.5"/><path class="" d="M20 65h70M20 74h70" fill="none" stroke="#949799" stroke-width="2" stroke-linecap="round" stroke-linejoin="round" /><circle cx="111" cy="70" r="3.5" fill="#8DC63F"/><rect x="10" y="94" width="115" height="29" rx="3" fill="#383B3C" stroke="#929693" stroke-width="1.5"/><path class="" d="M20 103h70M20 112h70" fill="none" stroke="#949799" stroke-width="2" stroke-linecap="round" stroke-linejoin="round" /><circle cx="111" cy="108" r="3.5" fill="#8DC63F"/><rect x="10" y="132" width="115" height="29" rx="3" fill="#383B3C" stroke="#929693" stroke-width="1.5"/><path class="" d="M20 141h70M20 150h70" fill="none" stroke="#949799" stroke-width="2" stroke-linecap="round" stroke-linejoin="round" /><circle cx="111" cy="146" r="3.5" fill="#8DC63F"/><rect x="10" y="170" width="115" height="29" rx="3" fill="#383B3C" stroke="#929693" stroke-width="1.5"/><path class="" d="M20 179h70M20 188h70" fill="none" stroke="#949799" stroke-width="2" stroke-linecap="round" stroke-linejoin="round" /><circle cx="111" cy="184" r="3.5" fill="#8DC63F"/><rect x="10" y="208" width="115" height="29" rx="3" fill="#383B3C" stroke="#929693" stroke-width="1.5"/><path class="" d="M20 217h70M20 226h70" fill="none" stroke="#949799" stroke-width="2" stroke-linecap="round" stroke-linejoin="round" /><circle cx="111" cy="222" r="3.5" fill="#8DC63F"/><rect x="10" y="246" width="115" height="29" rx="3" fill="#383B3C" stroke="#929693" stroke-width="1.5"/><path class="" d="M20 255h70M20 264h70" fill="none" stroke="#949799" stroke-width="2" stroke-linecap="round" stroke-linejoin="round" /><circle cx="111" cy="260" r="3.5" fill="#8DC63F"/><rect x="10" y="284" width="115" height="29" rx="3" fill="#383B3C" stroke="#929693" stroke-width="1.5"/><path class="" d="M20 293h70M20 302h70" fill="none" stroke="#949799" stroke-width="2" stroke-linecap="round" stroke-linejoin="round" /><circle cx="111" cy="298" r="3.5" fill="#8DC63F"/><rect x="10" y="322" width="115" height="29" rx="3" fill="#383B3C" stroke="#929693" stroke-width="1.5"/><path class="" d="M20 331h70M20 340h70" fill="none" stroke="#949799" stroke-width="2" stroke-linecap="round" stroke-linejoin="round" /><circle cx="111" cy="336" r="3.5" fill="#8DC63F"/><rect x="14" y="351" width="107" height="10" rx="2" fill="#252829" stroke="#252829" stroke-width="0"/></g><g class="" transform="translate(895 440)"><path d="M0 0l31.05 -19.872h135L135 0Z" fill="#B4B8B1" stroke="#5F6062" stroke-width="3"/><path d="M135 0l31.05 -19.872v370L135 370Z" fill="#454749" stroke="#5F6062" stroke-width="3"/><rect x="0" y="0" width="135" height="370" rx="6" fill="url(#rackFace)" stroke="#5F6062" stroke-width="3"/><rect x="14" y="15.0" width="107" height="100.0" rx="4" fill="#E7E9E5" stroke="#36393A" stroke-width="2"/><path class="" d="M73.5 30.0l-15 35.0h12l-10 35.0" fill="none" stroke="#6FA030" stroke-width="4" stroke-linecap="round" stroke-linejoin="round" /><rect x="14" y="125.0" width="107" height="100.0" rx="4" fill="#E7E9E5" stroke="#36393A" stroke-width="2"/><path class="" d="M73.5 140.0l-15 35.0h12l-10 35.0" fill="none" stroke="#6FA030" stroke-width="4" stroke-linecap="round" stroke-linejoin="round" /><rect x="14" y="235.0" width="107" height="100.0" rx="4" fill="#E7E9E5" stroke="#36393A" stroke-width="2"/><path class="" d="M73.5 250.0l-15 35.0h12l-10 35.0" fill="none" stroke="#6FA030" stroke-width="4" stroke-linecap="round" stroke-linejoin="round" /><rect x="14" y="351" width="107" height="10" rx="2" fill="#252829" stroke="#252829" stroke-width="0"/></g><g class="" transform="translate(1110 440)"><path d="M0 0l31.05 -19.872h135L135 0Z" fill="#B4B8B1" stroke="#5F6062" stroke-width="3"/><path d="M135 0l31.05 -19.872v370L135 370Z" fill="#454749" stroke="#5F6062" stroke-width="3"/><rect x="0" y="0" width="135" height="370" rx="6" fill="url(#rackFace)" stroke="#5F6062" stroke-width="3"/><rect x="10" y="18" width="115" height="29" rx="3" fill="#383B3C" stroke="#929693" stroke-width="1.5"/><path class="" d="M20 27h70M20 36h70" fill="none" stroke="#949799" stroke-width="2" stroke-linecap="round" stroke-linejoin="round" /><circle cx="111" cy="32" r="3.5" fill="#8DC63F"/><rect x="10" y="56" width="115" height="29" rx="3" fill="#383B3C" stroke="#929693" stroke-width="1.5"/><path class="" d="M20 65h70M20 74h70" fill="none" stroke="#949799" stroke-width="2" stroke-linecap="round" stroke-linejoin="round" /><circle cx="111" cy="70" r="3.5" fill="#8DC63F"/><rect x="10" y="94" width="115" height="29" rx="3" fill="#383B3C" stroke="#929693" stroke-width="1.5"/><path class="" d="M20 103h70M20 112h70" fill="none" stroke="#949799" stroke-width="2" stroke-linecap="round" stroke-linejoin="round" /><circle cx="111" cy="108" r="3.5" fill="#8DC63F"/><rect x="10" y="132" width="115" height="29" rx="3" fill="#383B3C" stroke="#929693" stroke-width="1.5"/><path class="" d="M20 141h70M20 150h70" fill="none" stroke="#949799" stroke-width="2" stroke-linecap="round" stroke-linejoin="round" /><circle cx="111" cy="146" r="3.5" fill="#8DC63F"/><rect x="10" y="170" width="115" height="29" rx="3" fill="#383B3C" stroke="#929693" stroke-width="1.5"/><path class="" d="M20 179h70M20 188h70" fill="none" stroke="#949799" stroke-width="2" stroke-linecap="round" stroke-linejoin="round" /><circle cx="111" cy="184" r="3.5" fill="#8DC63F"/><rect x="10" y="208" width="115" height="29" rx="3" fill="#383B3C" stroke="#929693" stroke-width="1.5"/><path class="" d="M20 217h70M20 226h70" fill="none" stroke="#949799" stroke-width="2" stroke-linecap="round" stroke-linejoin="round" /><circle cx="111" cy="222" r="3.5" fill="#8DC63F"/><rect x="10" y="246" width="115" height="29" rx="3" fill="#383B3C" stroke="#929693" stroke-width="1.5"/><path class="" d="M20 255h70M20 264h70" fill="none" stroke="#949799" stroke-width="2" stroke-linecap="round" stroke-linejoin="round" /><circle cx="111" cy="260" r="3.5" fill="#8DC63F"/><rect x="10" y="284" width="115" height="29" rx="3" fill="#383B3C" stroke="#929693" stroke-width="1.5"/><path class="" d="M20 293h70M20 302h70" fill="none" stroke="#949799" stroke-width="2" stroke-linecap="round" stroke-linejoin="round" /><circle cx="111" cy="298" r="3.5" fill="#8DC63F"/><rect x="10" y="322" width="115" height="29" rx="3" fill="#383B3C" stroke="#929693" stroke-width="1.5"/><path class="" d="M20 331h70M20 340h70" fill="none" stroke="#949799" stroke-width="2" stroke-linecap="round" stroke-linejoin="round" /><circle cx="111" cy="336" r="3.5" fill="#8DC63F"/><rect x="14" y="351" width="107" height="10" rx="2" fill="#252829" stroke="#252829" stroke-width="0"/></g><g class="" transform="translate(1325 440)"><path d="M0 0l31.05 -19.872h135L135 0Z" fill="#B4B8B1" stroke="#5F6062" stroke-width="3"/><path d="M135 0l31.05 -19.872v370L135 370Z" fill="#454749" stroke="#5F6062" stroke-width="3"/><rect x="0" y="0" width="135" height="370" rx="6" fill="url(#rackFace)" stroke="#5F6062" stroke-width="3"/><rect x="10" y="18" width="115" height="29" rx="3" fill="#383B3C" stroke="#929693" stroke-width="1.5"/><path class="" d="M20 27h70M20 36h70" fill="none" stroke="#949799" stroke-width="2" stroke-linecap="round" stroke-linejoin="round" /><circle cx="111" cy="32" r="3.5" fill="#8DC63F"/><rect x="10" y="56" width="115" height="29" rx="3" fill="#383B3C" stroke="#929693" stroke-width="1.5"/><path class="" d="M20 65h70M20 74h70" fill="none" stroke="#949799" stroke-width="2" stroke-linecap="round" stroke-linejoin="round" /><circle cx="111" cy="70" r="3.5" fill="#8DC63F"/><rect x="10" y="94" width="115" height="29" rx="3" fill="#383B3C" stroke="#929693" stroke-width="1.5"/><path class="" d="M20 103h70M20 112h70" fill="none" stroke="#949799" stroke-width="2" stroke-linecap="round" stroke-linejoin="round" /><circle cx="111" cy="108" r="3.5" fill="#8DC63F"/><rect x="10" y="132" width="115" height="29" rx="3" fill="#383B3C" stroke="#929693" stroke-width="1.5"/><path class="" d="M20 141h70M20 150h70" fill="none" stroke="#949799" stroke-width="2" stroke-linecap="round" stroke-linejoin="round" /><circle cx="111" cy="146" r="3.5" fill="#8DC63F"/><rect x="10" y="170" width="115" height="29" rx="3" fill="#383B3C" stroke="#929693" stroke-width="1.5"/><path class="" d="M20 179h70M20 188h70" fill="none" stroke="#949799" stroke-width="2" stroke-linecap="round" stroke-linejoin="round" /><circle cx="111" cy="184" r="3.5" fill="#8DC63F"/><rect x="10" y="208" width="115" height="29" rx="3" fill="#383B3C" stroke="#929693" stroke-width="1.5"/><path class="" d="M20 217h70M20 226h70" fill="none" stroke="#949799" stroke-width="2" stroke-linecap="round" stroke-linejoin="round" /><circle cx="111" cy="222" r="3.5" fill="#8DC63F"/><rect x="10" y="246" width="115" height="29" rx="3" fill="#383B3C" stroke="#929693" stroke-width="1.5"/><path class="" d="M20 255h70M20 264h70" fill="none" stroke="#949799" stroke-width="2" stroke-linecap="round" stroke-linejoin="round" /><circle cx="111" cy="260" r="3.5" fill="#8DC63F"/><rect x="10" y="284" width="115" height="29" rx="3" fill="#383B3C" stroke="#929693" stroke-width="1.5"/><path class="" d="M20 293h70M20 302h70" fill="none" stroke="#949799" stroke-width="2" stroke-linecap="round" stroke-linejoin="round" /><circle cx="111" cy="298" r="3.5" fill="#8DC63F"/><rect x="10" y="322" width="115" height="29" rx="3" fill="#383B3C" stroke="#929693" stroke-width="1.5"/><path class="" d="M20 331h70M20 340h70" fill="none" stroke="#949799" stroke-width="2" stroke-linecap="round" stroke-linejoin="round" /><circle cx="111" cy="336" r="3.5" fill="#8DC63F"/><rect x="14" y="351" width="107" height="10" rx="2" fill="#252829" stroke="#252829" stroke-width="0"/></g><g class="" transform="translate(1540 440)"><path d="M0 0l31.05 -19.872h135L135 0Z" fill="#B4B8B1" stroke="#5F6062" stroke-width="3"/><path d="M135 0l31.05 -19.872v370L135 370Z" fill="#454749" stroke="#5F6062" stroke-width="3"/><rect x="0" y="0" width="135" height="370" rx="6" fill="url(#rackFace)" stroke="#5F6062" stroke-width="3"/><rect x="10" y="18" width="115" height="29" rx="3" fill="#383B3C" stroke="#929693" stroke-width="1.5"/><path class="" d="M20 27h70M20 36h70" fill="none" stroke="#949799" stroke-width="2" stroke-linecap="round" stroke-linejoin="round" /><circle cx="111" cy="32" r="3.5" fill="#8DC63F"/><rect x="10" y="56" width="115" height="29" rx="3" fill="#383B3C" stroke="#929693" stroke-width="1.5"/><path class="" d="M20 65h70M20 74h70" fill="none" stroke="#949799" stroke-width="2" stroke-linecap="round" stroke-linejoin="round" /><circle cx="111" cy="70" r="3.5" fill="#8DC63F"/><rect x="10" y="94" width="115" height="29" rx="3" fill="#383B3C" stroke="#929693" stroke-width="1.5"/><path class="" d="M20 103h70M20 112h70" fill="none" stroke="#949799" stroke-width="2" stroke-linecap="round" stroke-linejoin="round" /><circle cx="111" cy="108" r="3.5" fill="#8DC63F"/><rect x="10" y="132" width="115" height="29" rx="3" fill="#383B3C" stroke="#929693" stroke-width="1.5"/><path class="" d="M20 141h70M20 150h70" fill="none" stroke="#949799" stroke-width="2" stroke-linecap="round" stroke-linejoin="round" /><circle cx="111" cy="146" r="3.5" fill="#8DC63F"/><rect x="10" y="170" width="115" height="29" rx="3" fill="#383B3C" stroke="#929693" stroke-width="1.5"/><path class="" d="M20 179h70M20 188h70" fill="none" stroke="#949799" stroke-width="2" stroke-linecap="round" stroke-linejoin="round" /><circle cx="111" cy="184" r="3.5" fill="#8DC63F"/><rect x="10" y="208" width="115" height="29" rx="3" fill="#383B3C" stroke="#929693" stroke-width="1.5"/><path class="" d="M20 217h70M20 226h70" fill="none" stroke="#949799" stroke-width="2" stroke-linecap="round" stroke-linejoin="round" /><circle cx="111" cy="222" r="3.5" fill="#8DC63F"/><rect x="10" y="246" width="115" height="29" rx="3" fill="#383B3C" stroke="#929693" stroke-width="1.5"/><path class="" d="M20 255h70M20 264h70" fill="none" stroke="#949799" stroke-width="2" stroke-linecap="round" stroke-linejoin="round" /><circle cx="111" cy="260" r="3.5" fill="#8DC63F"/><rect x="10" y="284" width="115" height="29" rx="3" fill="#383B3C" stroke="#929693" stroke-width="1.5"/><path class="" d="M20 293h70M20 302h70" fill="none" stroke="#949799" stroke-width="2" stroke-linecap="round" stroke-linejoin="round" /><circle cx="111" cy="298" r="3.5" fill="#8DC63F"/><rect x="10" y="322" width="115" height="29" rx="3" fill="#383B3C" stroke="#929693" stroke-width="1.5"/><path class="" d="M20 331h70M20 340h70" fill="none" stroke="#949799" stroke-width="2" stroke-linecap="round" stroke-linejoin="round" /><circle cx="111" cy="336" r="3.5" fill="#8DC63F"/><rect x="14" y="351" width="107" height="10" rx="2" fill="#252829" stroke="#252829" stroke-width="0"/></g><g class=""><rect x="95" y="150" width="830" height="161" rx="16" fill="#fff" stroke="#D5D8D1" stroke-width="3"/><rect x="95" y="150" width="10" height="161" rx="4" fill="#8DC63F" stroke="#8DC63F" stroke-width="0"/><text class="" x="125" y="224" font-size="52" font-weight="700" fill="#5F6062" text-anchor="start">25 kW/ft blended baseline</text><text class="" x="125" y="277" font-size="37" font-weight="700" fill="#5F6062" text-anchor="start">ML · network · compute · storage</text></g><g class=""><rect x="1010" y="150" width="820" height="157" rx="16" fill="#fff" stroke="#D5D8D1" stroke-width="3"/><rect x="1010" y="150" width="10" height="157" rx="4" fill="#8DC63F" stroke="#8DC63F" stroke-width="0"/><text class="" x="1040" y="221" font-size="49" font-weight="700" fill="#5F6062" text-anchor="start">350 kW/ft local peak target</text><text class="" x="1040" y="273" font-size="36" font-weight="700" fill="#5F6062" text-anchor="start">2027 expected rack peak: 125 kW/ft</text></g><rect x="1300" y="410" width="435" height="430" rx="14" fill="none" stroke="#6FA030" stroke-width="7"/><text class="" x="490" y="990" font-size="47" font-weight="700" fill="#5F6062" text-anchor="start">Schematic area—not a peak-zone percentage</text></svg>