<svg xmlns="http://www.w3.org/2000/svg" viewBox="0 0 256 256" role="img" aria-label="향상된 텔레메트리 신호 모니터링 기능이 있는 광 트랜시버">
  <rect width="256" height="256" rx="48" fill="#F8FAFC"/>
  <rect x="28" y="84" width="200" height="92" rx="18" fill="#343895"/>
  <path d="M48 84h150c16 0 30 14 30 30v32c0 16-14 30-30 30H48z" fill="#3D42A4"/>
  <rect x="40" y="102" width="47" height="56" rx="10" fill="#FFFFFF"/>
  <circle cx="59" cy="119" r="8" fill="#E8ECF7"/>
  <circle cx="59" cy="141" r="8" fill="#E8ECF7"/>
  <rect x="74" y="113" width="7" height="34" rx="3.5" fill="#D6DCE7"/>
  <path d="M89 121H187" fill="none" stroke="#8DC63F" stroke-width="8" stroke-linecap="round"/>
  <path d="M187 140H89" fill="none" stroke="#00A7C4" stroke-width="8" stroke-linecap="round"/>
  <circle cx="190" cy="121" r="9" fill="#8DC63F"/>
  <circle cx="86" cy="140" r="9" fill="#00A7C4"/>
  <rect x="190" y="112" width="24" height="36" rx="7" fill="#FFFFFF" opacity="0.94"/>
  <path d="M198 121h8M198 130h8M198 139h8" stroke="#343895" stroke-width="4" stroke-linecap="round"/>
  <circle cx="143" cy="103" r="45" fill="#FFFFFF" stroke="#D6DCE7" stroke-width="5"/>
  <circle cx="143" cy="103" r="34" fill="#EEF0FB" stroke="#343895" stroke-width="4"/>
  <path d="M116 105h12l7-18 12 37 10-26 8 15h12" fill="none" stroke="#343895" stroke-width="7" stroke-linecap="round" stroke-linejoin="round"/>
  <circle cx="112" cy="73" r="6" fill="#8DC63F"/>
  <circle cx="174" cy="83" r="6" fill="#00A7C4"/>
  <circle cx="167" cy="129" r="6" fill="#D88911"/>
  <rect x="101" y="157" width="18" height="8" rx="4" fill="#8DC63F"/>
  <rect x="126" y="157" width="18" height="8" rx="4" fill="#00A7C4"/>
  <rect x="151" y="157" width="18" height="8" rx="4" fill="#D88911"/>
</svg>
